<?xml version="1.0" encoding="utf-8"?>
<!-- Generator: Adobe Illustrator 25.0.1, SVG Export Plug-In . SVG Version: 6.00 Build 0)  -->
<svg version="1.1" id="Capa_1" xmlns="http://www.w3.org/2000/svg" xmlns:xlink="http://www.w3.org/1999/xlink" x="0px" y="0px"
	 viewBox="0 0 692.64 726.38" style="enable-background:new 0 0 692.64 726.38;" xml:space="preserve">
<style type="text/css">
	.st0{fill:#0B0707;}
	.st1{fill:#1B1717;}
	.st2{fill:#CC6161;}
	.st3{fill:#FDA3A1;}
	.st4{fill:#FDFD65;}
	.st5{clip-path:url(#SVGID_2_);}
	.st6{clip-path:url(#SVGID_4_);fill:#120D0F;}
	.st7{clip-path:url(#SVGID_4_);fill:#545454;}
	.st8{clip-path:url(#SVGID_4_);fill:#EBEDED;}
</style>
<g>
	<path class="st0" d="M102.31,414.06c-0.54-0.27-1.11-0.81-1.63-0.77c-11.5,1.05-21-5.01-31.07-8.85
		c-7.11-2.71-13.88-6.33-19.32-11.77c-11.58-11.58-15.22-26.07-14.66-41.95c0.05-1.51,0.83-2.89-1.14-4.09
		c-9.79-5.95-13.96-15.31-15.2-26.23c-0.35-3.1-1.05-5.89-2.57-8.64c-4.74-8.58-3.39-17.57-1.16-26.47
		c1.89-7.54,4.8-14.61,10.36-20.35c2.13-2.2,3.23-5.07,2.5-8.13c-2.44-10.24,1.34-19.15,5.4-28.18
		c7.36-16.35,15.81-32.02,26.64-46.36c3.17-4.19,6.85-7.71,12.23-8.8c1.06-0.21,1.51-0.79,1.69-1.65
		c2.31-10.66,9.57-17.78,17.69-24.06c9.09-7.02,19.05-12.45,30.63-14.26c0.96-0.15,1.96-0.37,2.9-0.25
		c2.75,0.35,4.66-0.45,5.82-3.16c0.44-1.04,1.53-1.92,2.52-2.6c10.53-7.33,20.85-15.02,31.73-21.79c14.46-9,30.79-13.06,47.39-15.96
		c13.6-2.38,27.24-4.78,41.01-5.76c6.47-0.46,12.94,1.15,18.54,4.89c1.37,0.92,2.41,1.37,4.14,0.64c5.69-2.42,11.77-3.36,17.9-3.56
		c12.73-0.42,25.39-1.68,38.09-2.43c12.1-0.71,23.86,1.31,35.48,4.89c14.78,4.55,30.26,5.8,45.35,8.97
		c10.57,2.21,20.9,5.2,31.18,8.45c1.33,0.42,2.61,1.51,4.17,0.69c-1.73,2.4-2.25,5.34-3.57,7.92c0.41-1.52-0.3-2.05-1.71-2.54
		c-8.8-3.01-17.7-5.67-26.76-7.71c-15.51-3.49-31.43-4.92-46.79-9.04c-11.38-3.05-22.67-6.39-34.61-5.74
		c-14.52,0.8-29.03,1.71-43.53,2.78c-6.75,0.5-13.32,1.92-18.91,6.17c-1.66,1.26-3.23,0.53-4.77-0.31c-0.84-1.78,1.83-4.55-1.6-5.59
		c-4.27-1.49-8.55-2.86-13.19-2.43c-14.11,1.29-28.09,3.61-42.01,6.12c-14.46,2.61-28.57,6.55-41.45,13.95
		c-11.03,6.34-20.65,14.77-31.43,21.5c-1.42,0.89-3.12,2.09-3.13,4.26c-0.37,3.03-2.03,4.07-5.04,3.62
		c-1.89-0.28-3.86-0.05-5.79-0.04c-1.44,0.19-2.93,0.22-4.32,0.59c-11.22,3.04-21,8.81-29.41,16.68
		c-5.54,5.18-10.67,10.89-10.81,19.27c-0.03,1.67-1.17,2.95-2.78,2.92c-6.28-0.14-9.73,3.94-12.96,8.37
		c-8.58,11.8-16.19,24.19-22.05,37.58c-4.56,10.41-11.08,20.37-7.8,32.66c0.05,2.84-0.29,5.61-1.37,8.27
		c-7.93,7.81-11.75,17.52-13.21,28.35c-0.75,5.61-0.35,10.98,2.72,15.93c1.86,3,2.33,6.35,2.6,9.8c0.62,7.92,4.02,14.51,9.88,19.85
		c1.53,1.66,3.41,2.39,5.65,2.17c1.58,1,2.61,2.26,1.98,4.27c-2.28,7.29-1.55,14.54,0.54,21.69c2.3,7.92,4.89,15.84,11.91,20.97
		c13.67,10,28.5,17.3,45.78,18.5c1.44,0.1,2.84,0.7,4.25,1.07c1.68,1.25,3.65,1.7,5.64,2.08c1.12,1.2,1.08,2.69,0.94,4.16
		c-0.27,2.8-0.79,5.58-0.9,8.39c-0.33,8.53,0.07,16.95,5.25,24.3c3.24,4.62,6.63,9.17,10.75,13c4.33,4.03,7.3,8.09,7.62,14.54
		c0.42,8.38,5.27,15.09,11.35,20.78c11.05,10.34,22.9,18.96,39.12,18.22c1.26-0.06,2.54,0.22,3.26,1.36
		c2.22,3.52,5.79,4.76,9.51,5.64c7.26,1.72,14.52,3.45,21.84,4.9c10.94,2.17,21.98,3.81,33.11,1.67c9.17-1.77,17.76-5.44,26.34-9.04
		c1.85-0.78,3.59-1.45,5.52-0.09c3.61,2.55,7.87,2.78,11.98,2.49c19.85-1.41,36.2-10.19,49.94-24.26
		c5.31-4.72,7.04-10.91,7.27-17.71c0.09-2.53,0.44-4.75,3.76-4.61c1.82,0.29,2.22,1.77,2.57,3.19c0.79,3.25,3.03,3.89,5.9,3.3
		c1.43-0.29,2.87-0.65,4.22-1.18c8.63-3.43,16.14-8.73,23.52-14.22c1.91-1.43,3.79-2.45,6.32-2.45c30.83,0.02,61.67-0.06,92.5-0.53
		c21.4-0.32,40.43-6.7,57.52-19.24c19.43-14.25,34.12-32.56,45.57-53.62c1.03-1.92,2.23-3.77,3.07-5.78
		c2.41-5.78,6.24-10.97,7.34-17.3c0.2-0.12,0.52-0.19,0.59-0.36c5.45-13.34,8.32-27.06,6.46-41.56c-1.82-14.2-7.59-26.99-13.8-39.65
		c-4.58-8.82-10.26-16.83-17.45-23.73c-1.43-1.95-3.35-3.22-5.66-3.83c-2.45-0.65-3.12-2.31-2.46-4.47
		c1.49-4.9,0.77-9.67-0.58-14.43c-2.6-9.24-7.35-17.6-10.92-26.45c-0.13-0.33-0.76-0.47-1.15-0.69c2.09-1.28,4.19-2.55,6.28-3.83
		c1.36,6.16,4.8,11.46,7.14,17.22c3.42,8.42,6.97,16.77,5.74,26.2c-0.1,0.74,0.12,1.27,0.85,1.82
		c13.5,10.24,21.86,24.24,28.41,39.47c3.96,9.21,7.56,18.54,9.15,28.58c2.64,16.72-0.22,32.62-6.49,48.08
		c-8.47,20.89-19.52,40.26-34.46,57.25c-13.85,15.76-29.98,28.43-49.78,36.02c-1.34,0.51-2.82,0.71-3.34,2.82
		c-4.73,19.01-16.92,32.87-31.73,44.73c-14.94,11.97-32,20.12-49.8,26.87c-9.81,3.72-19.11,8.68-29.08,12.02
		c-7.34,2.46-14.82,4.32-22.58,4.43c-2.85,0.04-3.15,0.73-2.41,3.31c8.07,27.96,15.48,56.1,22.64,84.3
		c1.02,4.04,2.09,8.07,3.06,12.12c0.79,3.26-0.24,4.66-3.63,4.67c-12.42,0.06-24.83-0.04-37.25,0.07c-3.15,0.03-3.86-1.91-4.46-4.31
		c-4.62-18.79-10.97-37-17.62-55.16c-5.15-14.08-13.94-24.78-25.77-33.43c-13.64-9.98-25.97-21.22-34.33-36.22
		c-0.34-0.62-0.9-1.53-1.41-1.57c-4.46-0.35-8.27-3.66-13.51-0.99c-8.04,4.1-16.77,6.95-25.84,8.08
		c-13.42,1.67-26.52-0.71-39.54-3.67c-5.96-1.35-11.92-2.74-17.86-4.21c-1.41-0.35-3.03-0.75-4.02-1.69
		c-4.16-3.92-9.26-4.49-14.61-5.18c-12.62-1.65-22.16-9.28-31.42-17.24c-7.56-6.5-13.65-14.47-14.44-24.39
		c-0.63-7.98-5.97-11.8-10.2-16.86c-5.27-6.31-10.71-12.55-12.58-20.82c-1.43-6.35-1.82-12.85-1.11-19.36
		C105.16,417.82,106.35,414.78,102.31,414.06z M518.16,465.68c-3.39-0.21-6.27,1-9.27,1.38c-15.38,1.96-30.87,1.35-46.3,1.73
		c-19.77,0.48-39.56,0.18-59.34,0.06c-3.01-0.02-5.39,0.77-7.74,2.58c-4.56,3.52-9.24,6.9-14.37,9.58
		c-6.51,3.41-12.96,7.11-20.84,5.26c-1.99-0.47-1.68,1.54-1.95,2.43c-1.96,6.32-5.91,11.19-10.75,15.48
		c-4.68,4.16-9.6,7.98-14.96,11.23c-0.79,0.48-2.11,0.71-1.93,1.9c0.16,1.09,1.44,1.12,2.32,1.48c5.03,2.06,10.25,3.38,15.68,3.58
		c3.88,0.14,6.6,0.89,6.49,5.73c-0.06,2.62,1.89,4.78,3.79,6.55c2.52,2.33,5.35,4.26,8.35,5.99c14.56,8.39,29.61,7.77,44.69,2.08
		c12.61-4.76,24.99-10.13,37.43-15.32c20.67-8.63,39.78-19.64,54.62-36.87C510.33,483.27,515.52,475.32,518.16,465.68z
		 M391.5,651.39c4.3,0,8.62-0.19,12.9,0.06c3.12,0.18,3.6-0.71,2.86-3.65c-7.6-29.9-15.58-59.69-23.78-89.42
		c-1.22-4.42-2.97-7.03-7.58-7.76c-2.25-0.36-4.44-1.39-6.53-2.37c-8.62-4.03-17.12-8.25-20.02-18.48c-0.4-1.41-1.39-1.41-2.54-1.52
		c-7.5-0.74-14.67-2.6-21.26-6.36c-1.82-1.04-3.48-1.22-5.52-0.29c-5.02,2.29-10.33,3.75-15.81,4.43c-6.73,0.84-6.64,0.71-2.8,6.36
		c7.93,11.65,18.9,20.07,29.88,28.51c10.75,8.26,19.44,18.03,24.52,30.99c7.25,18.49,13.7,37.21,18.58,56.46
		c0.57,2.26,1.32,3.25,3.85,3.11C382.64,651.21,387.07,651.39,391.5,651.39z"/>
	<path class="st1" d="M445.35,114.45c1.33-2.58,1.84-5.53,3.57-7.92c5.82-13.15,15.31-23.17,27.1-31.03
		c13.15-8.77,27.82-13.31,43.58-13.34c40.5-0.1,73.96,28.77,79.83,67.7c3.99,26.44-3.68,49.28-21.76,68.74
		c-3.08,3.31-6.59,6.19-10.3,8.81c-2.09,1.28-4.19,2.55-6.28,3.83c-0.84,0.63-1.68,1.26-2.52,1.89c-1.86,0.92-3.72,1.84-5.58,2.76
		c-10.56,4.1-21.4,7.14-32.82,6.51c-4.94-0.27-8.19,1.17-10.23,5.56c-1.43,1.95-2.87,3.89-4.31,5.84
		c-5.22,6.04-9.24,12.9-13.42,19.66c-1.72,2.78-2.99,4.84,1.25,6.53c2.38,0.95,2.73,3.46,1.67,5.67c-1.08,2.26-3.42,3.59-5.46,2.07
		c-4.69-3.49-6.14-0.17-7.87,3.11c-0.46,0.86-0.92,1.74-1.5,2.52c-1.32,1.78-1.59,2.99,0.93,4.15c2.61,1.2,3.27,3.7,1.91,6.19
		c-1.43,2.63-3.77,2.7-6.35,1.52c-0.94-0.43-1.84-1.99-3.11-0.47c-2.6,3.46-5.72,6.85-1.05,11.03c0.31,0.28,0.31,0.9,0.46,1.37
		l-0.01,0.1c-0.09,0.3-0.19,0.6-0.28,0.9c-1.33,3.39-3.62,4.54-6.92,2.71c-1.32-0.73-1.84-0.36-2.58,0.76
		c-1.63,2.47-3.98,4.26-6.29,6.05c-2.19,0.5-4.38,1-6.57,1.5c-0.37-0.02-0.78,0.05-1.09-0.08c-11.97-5.3-23.18-12-34.28-18.85
		c-4.87-3-6.55-9.9-4.12-15.43c1.18-2.68,1.58-4.22-1.45-5.74c-1.88-0.95-2.44-3.06-1.45-5.14c1.01-2.13,3.1-3.62,5.05-2.49
		c4.23,2.45,5.12-0.4,6.38-3.2c0.6-1.33,1.32-2.61,2.01-3.97c-1.11-0.67-2.19-1.24-3.2-1.93c-2.23-1.52-2.35-3.73-1.34-5.85
		c1.03-2.17,3.48-3.16,5.27-1.96c3.85,2.59,4.69-0.29,5.99-2.64c0.65-1.18,0.96-2.6,1.79-3.6c1.96-2.37,0.97-3.53-1.39-4.54
		c-2.93-1.26-4.11-3.47-2.82-6.52c1.1-2.62,3.69-2.96,7.56-1.19c1.27,1.14,2.47,1.56,3.3-0.44c0.59-1.41,1.9-2.48,1.97-4.13
		c5.96-10.42,10.12-21.68,15.31-32.46c0.63-1.31-0.35-2.09-0.92-2.96c-2.97-4.58-5.27-9.51-7.72-14.36
		c-1.58-5.8-3.33-11.56-4.33-17.51c-1.56-10.39-0.81-20.67,1.34-30.9c0.41-0.24,0.75-0.48-0.02-0.7l0,0
		c0.9-1.62,1.41-3.34,1.39-5.21C444.21,116.4,444.78,115.42,445.35,114.45z M520.27,213.64c0,0.05,0.01,0.1,0.01,0.14
		c2.32-0.16,4.64-0.29,6.96-0.49c35.13-3.14,63.4-33.14,64.36-68.34c1.15-42.02-33.13-77.18-77.42-73.47
		c-26.96,2.26-46.98,16.47-58.4,40.99c-11.5,24.7-8.69,48.8,6.71,71.28c1.72,2.51,1.79,4.31,0.55,6.92
		c-3.74,7.83-7.16,15.82-10.84,23.69c-0.82,1.74-0.54,2.47,1.12,3.39c11.67,6.46,23.3,12.98,34.87,19.61
		c1.91,1.09,2.91,0.89,4.17-0.87c4.11-5.77,8.59-11.3,12.52-17.19c2.91-4.35,5.86-7.67,11.72-5.72
		C517.71,213.96,519.04,213.64,520.27,213.64z M440.25,240.43c-1.11-0.15-1.43,0.53-1.78,1.18c-0.92,1.73-1.65,3.6-2.81,5.15
		c-2.35,3.16-1.08,4.69,1.97,6.31c8.52,4.54,16.9,9.36,25.33,14.06c2.56,1.43,5.48,4.31,7.63,3.83c2.51-0.57,3.25-4.8,5.05-7.25
		c1.31-1.78,1.39-2.84-0.93-4.11c-11.05-6.03-21.98-12.29-32.96-18.47C441.22,240.84,440.65,240.62,440.25,240.43z M465.85,279.97
		c-0.36-1.56-1.58-1.77-2.49-2.28c-9.28-5.22-18.61-10.37-27.87-15.63c-6.42-3.65-6.3-3.68-9.49,2.85
		c-0.97,1.99-0.71,3.01,1.22,4.08c10.61,5.85,21.17,11.81,31.76,17.7c0.66,0.37,1.54,1.49,2.23,0.54
		C462.92,284.86,464.38,282.31,465.85,279.97z M485.54,247.18c0.3-1.22-0.56-1.41-1.16-1.74c-11.75-6.61-23.52-13.19-35.25-19.83
		c-1.49-0.84-2.21-0.43-2.82,0.98c-0.48,1.13-1,2.26-1.67,3.28c-0.99,1.5-0.58,2.33,0.91,3.16c11.47,6.36,22.9,12.78,34.36,19.16
		c0.67,0.37,1.5,1.44,2.22,0.45C483.45,250.86,484.49,248.9,485.54,247.18z M421.12,275.95c-1.11,0.06-1.33,0.84-1.65,1.47
		c-1.32,2.65-0.35,5.19,2.81,6.98c7.98,4.53,15.99,9.01,24,13.49c1.17,0.66,2.36,1.38,3.64,1.74c2.7,0.75,4.64-0.86,5.68-2.93
		c1.08-2.14-1.51-2.3-2.62-2.93c-9.65-5.54-19.38-10.95-29.09-16.38C422.94,276.85,421.95,276.38,421.12,275.95z"/>
	<path class="st1" d="M594.08,13.86c2.18,1.52,4.45,2.97,6.53,4.66c0.62,0.5-0.35,1.32-0.71,1.85
		c-9.66,14.43-19.39,28.82-29.04,43.25c-1.02,1.52-1.72,1.43-3.15,0.5c-5.81-3.76-5.75-3.63-1.93-9.26
		c8.74-12.84,17.36-25.76,26.07-38.62C592.43,15.41,592.73,14.22,594.08,13.86z"/>
	<path class="st1" d="M657.57,93.05c0,1.1-0.94,1.26-1.7,1.58c-14.5,6.15-29.03,12.23-43.48,18.5c-2.38,1.03-3.13,0.33-3.99-1.75
		c-2.23-5.4-2.3-5.35,2.98-7.59c13.16-5.57,26.37-11.02,39.42-16.82c3.19-1.41,4.49-0.8,5.31,2.29
		C656.46,90.55,657.07,91.76,657.57,93.05z"/>
	<path class="st1" d="M503.43,0.21c2.47-0.74,2.49,0.67,2.74,1.43c4.95,15.2,9.84,30.42,14.76,45.63c0.4,1.24,0.24,1.85-1.15,2.47
		c-6.12,2.73-6.61,2.62-8.64-3.62c-4.34-13.36-8.49-26.78-13.06-40.06c-1.15-3.35-0.42-4.58,2.72-5.16
		C502,0.67,503.17,0.28,503.43,0.21z"/>
	<path class="st2" d="M102.31,414.06c4.04,0.73,2.85,3.76,2.78,6.3C100.92,419.68,101.27,417.02,102.31,414.06z"/>
	<path class="st3" d="M346.48,496.54c-13.74,14.07-30.09,22.85-49.94,24.26c-4.12,0.29-8.37,0.06-11.98-2.49
		c-1.93-1.37-3.67-0.69-5.52,0.09c-8.58,3.6-17.16,7.27-26.34,9.04c-11.13,2.14-22.17,0.5-33.11-1.67
		c-7.32-1.45-14.58-3.18-21.84-4.9c-3.71-0.88-7.29-2.12-9.51-5.64c-0.72-1.14-1.99-1.42-3.26-1.36
		c-16.22,0.74-28.07-7.88-39.12-18.22c-6.08-5.68-10.92-12.39-11.35-20.78c-0.33-6.45-3.3-10.51-7.62-14.54
		c-4.12-3.83-7.51-8.38-10.75-13c-5.17-7.36-5.57-15.77-5.25-24.3c0.11-2.8,0.63-5.59,0.9-8.39c0.14-1.47,0.19-2.96-0.94-4.16
		c6.37-12.35,14.05-23.72,24.49-33.08c8.08-7.24,16.89-12.56,28.31-11.46c1.93,0.19,3.28-0.49,4.2-2.24
		c2.16-4.12,5.93-5.52,10.28-5.89c2.25,3.04,4.69,5.97,6.72,9.15c11.38,17.83,19.5,37.41,29.76,55.84
		c-5.32-0.25-9.91-2.37-13.01-6.57c-3.85-5.23-6.86-11.04-9.24-17.11c-0.83-2.11-1.72-4.23-4.33-3.19
		c-2.55,1.02-1.81,3.28-1.15,5.39c2.02,6.4,5.53,12.03,9.2,17.52c2.12,3.18,1.99,5.55-0.2,8.55c-3.03,4.15-6.73,7.45-11.05,10.08
		c-2.87,1.75-6.14,3.19-9.46,2.13c-6.43-2.06-13.13-3.47-18.31-8.57c-3.29-3.24-7.31-5.79-11.91-7.12c-1.77-0.51-3.31-0.3-3.8,1.65
		c-0.39,1.56-0.36,3.21,1.75,3.86c3.11,0.96,5.55,3.04,8.18,4.86c4.99,3.44,9.23,8.19,15.61,9.35c0.35,0.06,0.84,0.65,0.86,1.02
		c0.21,3.74,3.23,5.42,5.65,7.31c4.24,3.32,6.82,7.59,8.5,12.55c2.21,6.51,2.62,13.1,1.49,19.92c-0.63,3.8,1.07,4.92,4.71,4.01
		c10.12-2.54,20.32-4.51,30.8-2.94c9.72,1.45,19.9,1.52,27.75,8.96c2.16,2.05,4.6,1.18,6.66-0.47c1.97-1.59,4.18-2.76,6.59-3.13
		c9.06-1.39,18.01-3.53,27.29-3.3c8.67,0.21,11.69,2.09,14.92,10.29c0.79,2.02,2.08,3.23,4.12,2.63c2.06-0.61,2.11-2.61,1.68-4.34
		c-1.64-6.67-5.61-11.34-12.21-13.55c-5.85-1.96-11.81-1.76-17.8-0.8c-7.6,1.22-15.32,1.76-22.68,4.25
		c-4.2,1.42-6.69,1.29-10.46-0.73c-1.07-0.58-2.21-1.07-3.38-1.43c-15.81-4.85-31.81-6.91-48.12-2.82c-2.97,0.74-3.55-0.2-3.34-2.91
		c0.49-6.35-0.89-12.41-3.23-18.3c-2.07-5.21-5.47-9.44-10.17-13.17c2.71-0.72,4.94-1.03,6.91-1.89c7.95-3.49,14.48-8.73,18.8-16.4
		c0.99-1.76,1.93-2.19,3.8-1.29c3.94,1.88,8.16,2.59,12.52,2.42c3.01,4.17,5.81,8.51,9.08,12.48c7.76,9.41,16.56,16.91,30.08,14.51
		c2.1,0.43,4.11,0.13,6.15-0.47c5.39-1.59,10.14-4.3,14.19-8.16c1.23-1.18,2.19-1.64,3.76-0.57c7.68,5.21,16.51,6.51,25.47,7.08
		c7.83,0.5,15.64-0.15,23.4-1.3c1.52-0.23,3.2-0.66,2.76,2.2c-0.25,1.63,1.06,2.78,3.04,2.94c6.19,0.5,12.65,5.65,14.01,11.62
		c1.74,7.59,0.98,15.03-2.95,21.89C346.69,493.31,346.2,494.78,346.48,496.54z"/>
	<path class="st3" d="M105.22,408.4c-1.42-0.37-2.82-0.97-4.25-1.07c-17.28-1.2-32.11-8.5-45.78-18.5
		c-7.02-5.13-9.61-13.06-11.91-20.97c-2.08-7.16-2.82-14.4-0.54-21.69c0.63-2.01-0.4-3.27-1.98-4.27c0.33-1.8,0.87-3.6,0.94-5.41
		c0.19-4.58,1.26-8.91,2.79-13.22c2.1-5.89,6.87-9.78,10.43-14.57c5.56-7.48,19.44-8.38,25.95-1.64c1.09,1.13,2.12,1.61,3.53,1.27
		c1.57-0.38,1.95-1.75,2.19-3.1c0.35-1.93,0.12-3.88,0.52-5.85c2.32-11.51,7.87-21.35,15.57-29.98c9.36-10.49,18.2-12.08,30.28-5.89
		c2.44,1.25,4.35,0.22,4.64-2.57c0.19-1.82,0.11-3.62,0.47-5.47c1.23-6.28,4.79-11.48,7.5-17.08c4.35,12.72,12.96,22.11,24.07,29.88
		c-6,1.72-11.43,3.33-16.89,7.24c8.61,0.12,16.29-1.38,24.03-0.83c1.69,0.12,3.41-0.23,5.12-0.36c6.38,0.36,12.76,0.51,19.14-0.08
		c0.49-0.01,0.98-0.01,1.47-0.02c0.93,0.53,1.91,0.33,2.89,0.23c-0.53,3.18-1.05,6.37-1.58,9.55c-2.78-0.25-5.49,0.42-7.78,1.73
		c-3.25,1.86-5.51,0.64-7.79-1.49c-1.89-1.78-3.36-3.87-4.61-6.13c-0.47-0.85-0.95-1.77-1.67-2.38c-1.46-1.25-3.26-0.64-4.94-0.56
		c-0.73,0.03-1.2,0.7-0.91,1.27c0.95,1.9,0.05,4.25,1.45,5.97c1.7,2.09,1.32,3.93-0.2,5.95c-1.34,1.77-2.8,3.33-4.53,4.74
		c-5.71,4.65-12.52,7.66-18.17,12.37c-2.88,2.4-5.55,5.04-8.31,7.57c-3.49-1.51-6.7-3.5-9.63-5.92c-4.98-4.12-5.22-7.74-0.69-12.33
		c2.3-2.33,4.8-4.47,7.76-7.19c-4.65,0.73-8.41,1.71-11.87,3.6c-8.86,4.84-9.96,12.81-3.03,20.19c3.85,4.1,8.76,6.55,13.4,9.44
		c-0.75,1.94-1.66,3.85-2.22,5.85c-0.48,1.73-1.42,2.31-3.13,2.43c-16.87,1.23-32.07,7.54-46.67,15.57
		c-8.92,4.9-10.58,15.59-8.47,22.25c0.65,2.05,1.72,4.6,4.51,3.78c2.78-0.81,2.35-3.05,1.55-5.43c-1.79-5.31-0.15-11.68,4.04-14.25
		c14.28-8.78,29.64-14.71,46.48-15.95c4.12-0.3,6.82-1.08,7.37-5.6c0.17-1.43,0.98-2.77,1.35-4.19c0.33-1.26,1.22-1.39,2.24-1.42
		c1.87,0.41,3.2,1.46,4.35,3.04c4.16,5.73,8.46,11.35,12.71,17.02c-0.33,4.15-0.8,8.26-2.21,12.22c-0.72,2.03-1.64,3.16-4.1,3.37
		c-7.15,0.62-13.95,2.57-20.03,6.58C124.15,376.63,113.61,391.63,105.22,408.4z"/>
	<path class="st2" d="M518.16,465.68c-2.64,9.64-7.82,17.59-14.08,24.85c-14.84,17.23-33.95,28.24-54.62,36.87
		c-12.44,5.19-24.83,10.56-37.43,15.32c-15.08,5.69-30.13,6.32-44.69-2.08c-3-1.73-5.83-3.65-8.35-5.99
		c-1.9-1.77-3.85-3.93-3.79-6.55c0.11-4.84-2.61-5.59-6.49-5.73c-5.42-0.2-10.65-1.52-15.68-3.58c-0.88-0.36-2.16-0.39-2.32-1.48
		c-0.18-1.19,1.14-1.43,1.93-1.9c5.36-3.25,10.28-7.07,14.96-11.23c4.84-4.3,8.79-9.17,10.75-15.48c0.28-0.89-0.04-2.9,1.95-2.43
		c7.87,1.85,14.32-1.85,20.84-5.26c5.12-2.68,9.8-6.07,14.37-9.58c2.35-1.81,4.73-2.6,7.74-2.58c19.78,0.12,39.57,0.41,59.34-0.06
		c15.43-0.37,30.92,0.24,46.3-1.73C511.88,466.68,514.77,465.47,518.16,465.68z"/>
	<path class="st3" d="M509.93,227.95c2.04-4.39,5.29-5.83,10.23-5.56c11.42,0.63,22.26-2.41,32.82-6.51
		c5.43,10.59,7.65,21.82,6.59,33.68c-0.44,4.94-3.81,8.42-6.19,12.36c-4.93,8.16-4.63,11.7,2.1,18.5c3.68,3.72,6.74,7.92,8.18,12.93
		c2.26,7.87,4.22,15.84,5.99,23.84c0.65,2.94,0.88,6.19-0.87,8.97c-1.64,2.61-0.88,4.4,0.69,6.92c4.68,7.5,10.22,15.04,5.05,24.7
		c-0.71,1.32-0.32,2.94,1.18,3.88c1.58,0.99,2.94,0.21,3.92-0.9c1.75-1.96,2.7-4.31,2.82-7.02c0.29-6.15-0.97-11.97-3.79-17.4
		c-2.2-4.23-5.68-8.1-2.89-13.39c0.15-0.29,0.01-0.73,0.02-1.1c0.4-7.76-2.59-14.9-4.06-22.32c-1.76-8.86-5.41-16.66-11.94-23.16
		c-4.78-4.76-4.62-5.94-0.88-11.71c0.27-0.41,0.56-0.81,0.84-1.21c4.31-6.08,6.56-12.76,6.38-20.3c-0.26-10.62-3.25-20.5-7.58-30.06
		c0.84-0.63,1.68-1.26,2.52-1.89c0.39,0.23,1.02,0.36,1.15,0.69c3.57,8.84,8.32,17.2,10.92,26.45c1.34,4.77,2.06,9.53,0.58,14.43
		c-0.65,2.16,0.01,3.82,2.46,4.47c2.31,0.61,4.23,1.88,5.66,3.83c-0.64,2.56,0.04,4.72,1.57,6.9c2.67,3.8,5.58,7.48,6.94,12.07
		c2.33,7.87,5.78,15.35,8.1,23.24c4.9,16.64,7.27,33.21,0.87,50.02c-1.07,2.8-1.33,5.7,0.44,8.47c0.78,1.22,0.47,2.63,0.03,3.92
		c-1.32,3.83-2.56,7.68-4.05,11.44c-1.71,4.31-3.91,8.25-9.2,9.01c-1.1,0.16-2.03,0.87-2.77,1.73c-3.48,4.09-7.84,5.37-13.15,4.77
		c-4.58-0.51-8.41-2.36-11.02-5.9c-3.26-4.42-6.72-9.3-6.46-14.92c0.34-7.48,0.89-14.92-0.25-22.35
		c-1.54-10.08-5.42-18.64-14.69-24.21c-7.42-4.45-8.11-6.79-6.06-15.33c1.67-6.94,2.51-13.92,2.42-21.1
		c-0.12-9.57-0.14-19.14-1.59-28.62c-1.71-11.16-5.88-20.96-15.64-27.64C514.91,230.96,511.83,230.39,509.93,227.95z"/>
	<path class="st3" d="M35.11,339.72c-5.86-5.34-9.26-11.93-9.88-19.85c-0.27-3.45-0.74-6.8-2.6-9.8
		c-3.06-4.94-3.47-10.32-2.72-15.93c1.46-10.83,5.28-20.54,13.21-28.35c5.53-3.71,11.74-5.19,18.29-5.23
		c2.8-0.02,3.83-1.31,4.4-3.84c1.58-6.97,1.05-14.15,2.17-21.15c1.01-6.3,2.69-12.62,9.02-15.48c6.18-2.79,12-0.59,17.1,3.48
		c1.72,1.37,3.37,2.84,4.99,4.32c1.17,1.06,2.38,1.1,3.72,0.45c1.39-0.68,1.54-1.93,1.17-3.14c-1.64-5.34-0.02-10.13,2.28-14.86
		c4.67-9.6,11.48-17.64,18.53-25.5c5.4-6.02,11.58-10.91,19.59-13.16c9.6-2.69,15.42-0.61,18.77,6.94
		c-6.51,8.07-10.76,17.14-11.71,27.53c-0.69,7.57,0.08,15.11,1.32,22.59c-0.66,1.81-1.2,3.67-1.99,5.43
		c-2.9,6.46-6.98,12.39-8.55,19.44c-0.36,1.62-1.38,1.62-2.79,1.11c-3.36-1.21-6.83-1.97-10.44-1.34
		c-6.97,1.21-12.86,4.48-17.96,9.34c-9.66,9.2-16.13,20.24-19.3,33.18c-0.66,2.69-1.2,3.67-4.47,2.53
		c-7.43-2.58-15.18-3.64-22.19,1.26c-4.14,2.89-6.56,7.52-9.82,11.31c-2.7,3.14-5.15,6.4-6.62,10.45
		C36.49,327.39,36.08,333.59,35.11,339.72z"/>
	<path class="st3" d="M595.64,389.48c-11.45,21.05-26.15,39.37-45.57,53.62c-17.1,12.54-36.12,18.92-57.52,19.24
		c-30.83,0.46-61.67,0.55-92.5,0.53c-2.54,0-4.41,1.02-6.32,2.45c-7.38,5.49-14.89,10.79-23.52,14.22
		c-1.35,0.54-2.79,0.89-4.22,1.18c-2.87,0.58-5.11-0.05-5.9-3.3c-0.35-1.43-0.75-2.91-2.57-3.19c-0.99-11.46-7.82-18.33-18.32-22.86
		c9.63-2.49,18.49-5.92,27.02-10.21c8.05-4.05,15.83-8.44,21.69-15.5c1.06-1.28,1.83-1.64,3.34-0.81
		c9.11,5.04,18.87,7.81,29.19,9.38c15.43,2.34,29.08-1.36,41.55-10.25c1.33-0.95,2.11-0.61,3.26-0.14c2.74,1.12,5.58,2.07,8.57,1.76
		c10.99-1.14,20.23-5.89,27.29-14.33c1.93-2.31,3.34-2.56,5.77-1.5c6.28,2.75,12.8,4.39,19.65,2.65c8.51-2.16,16-5.95,21.14-13.54
		c2.31-3.41,2.84-7.46,4.63-11.63c2.36,3.8,5.23,6.36,8.57,8.45c7.4,4.62,18.72,4.33,24.85-1.14
		C588.66,391.91,592.22,390.94,595.64,389.48z M466.73,453.67c8.05-0.72,16.31-3.35,24.25-6.97c6.35-2.9,12.75-5.86,16.39-12.39
		c0.8-1.43,1.9-1,3.18-0.73c4.64,0.97,9.27,2.25,14.1,1.01c7.11-1.83,14.26-3.26,21.6-3.97c7.92-0.77,14.36-4.51,18.82-11.39
		c1.09-1.69,1.64-3.08,0.02-4.51c-1.64-1.45-3.15-0.84-4.46,0.65c-0.4,0.46-0.9,0.84-1.29,1.31c-3.83,4.6-8.26,7.94-14.68,7.84
		c-2.41-0.04-4.89,0.37-7.24,0.95c-9.89,2.44-19.71,5.11-29.91,1.31c-2.09-0.78-3.92,0.57-4.58,2.68c-0.95,3.02-3.07,4.95-5.48,6.7
		c-7.28,5.28-15.63,8.06-24.21,10.28c-5.97,1.54-11.75,1.78-17.2-1.84c-1.45-0.96-3.07-0.71-4.3,0.74
		c-2.77,3.27-6.51,4.86-10.56,5.47c-10.82,1.64-21.73,1.91-32.63,1.29c-2.62-0.15-5.59-0.43-7.38-3.36
		c-0.93-1.52-2.89-1.29-4.24-0.09c-1.43,1.26-1.37,2.76-0.14,4.23c1.85,2.22,3.93,4.04,6.91,4.54c8,1.33,16.05,1.02,24.11,0.79
		c5.9-0.17,11.99-0.01,17.37-2.37c6.75-2.96,13.29-4.59,20.45-2.17C465.75,453.7,465.89,453.67,466.73,453.67z"/>
	<path class="st2" d="M595.64,389.48c-3.43,1.46-6.98,2.43-9.94,5.07c-6.13,5.47-17.45,5.76-24.85,1.14
		c-3.34-2.09-6.21-4.65-8.57-8.45c-1.78,4.17-2.32,8.22-4.63,11.63c-5.14,7.59-12.62,11.38-21.14,13.54
		c-6.86,1.74-13.37,0.1-19.65-2.65c-2.42-1.06-3.84-0.81-5.77,1.5c-7.06,8.44-16.3,13.19-27.29,14.33
		c-2.99,0.31-5.83-0.65-8.57-1.76c-1.15-0.47-1.93-0.81-3.26,0.14c-12.47,8.88-26.12,12.58-41.55,10.25
		c-10.33-1.56-20.08-4.34-29.19-9.38c-1.51-0.83-2.28-0.48-3.34,0.81c-5.86,7.06-13.64,11.45-21.69,15.5
		c-8.54,4.29-17.39,7.72-27.02,10.21c10.5,4.53,17.33,11.4,18.32,22.86c-3.32-0.14-3.67,2.08-3.76,4.61
		c-0.23,6.79-1.96,12.99-7.27,17.71c-0.29-1.77,0.2-3.24,1.12-4.84c3.93-6.86,4.68-14.3,2.95-21.89
		c-1.37-5.97-7.82-11.12-14.01-11.62c-1.98-0.16-3.29-1.31-3.04-2.94c0.44-2.86-1.23-2.43-2.76-2.2c-7.76,1.15-15.57,1.79-23.4,1.3
		c-8.96-0.57-17.79-1.87-25.47-7.08c-1.57-1.07-2.53-0.61-3.76,0.57c-4.05,3.86-8.79,6.57-14.19,8.16c-2.04,0.6-4.06,0.9-6.15,0.47
		c5-2.22,9.34-5.33,12.93-9.46c2.31-2.65,4.55-5.35,6.82-8.03c2-0.95,3.43,0,4.95,1.24c4.78,3.89,10.38,5.88,16.39,6.95
		c9.49,1.69,18.95,1.25,28.44,0.05c19.44-2.46,36.7-10.18,52.4-21.63c2.3-1.67,3.9-3.97,4.43-6.94c0.61-3.47,2.8-4.16,5.79-2.23
		c18.89,12.18,38.85,16.46,60.39,7.7c3.81-1.55,7.58-3.29,9.29-7.74c0.84-2.18,2.96-2.48,4.81-0.67c1.8,1.76,3.76,3.2,6.35,3.39
		c10.4,0.76,18.7-3.89,25.25-11.23c5.09-5.7,5.54-13.07,4.65-20.61c-1.46-12.35-13.49-24.4-25.7-25.88
		c-6.51-0.79-12.63,0.26-18.75,2c-2.94,0.84-4.76,0.31-5.07-3.13c-0.34-3.83-3.22-5.14-6.43-5.34c-5.25-0.33-10.51-0.24-15.71,1.05
		c-18.55,4.59-36.19,11.85-54.13,18.23c-2.89,1.03-5.69,2.35-8.63,3.14c-5.37,1.44-10.96,2.53-16.08-0.43
		c-2.3-1.33-3.03-0.64-4.21,1.08c-8.13,11.87-18.6,21.11-31.52,27.45c-6.49,3.19-13.21,5.79-20.6,5.97c0.64-2.31,1.68-4.42,3.1-6.34
		c13.53-2.74,24.71-9.66,34.46-19.22c5.21-5.1,9.64-10.75,13.26-17.07c1.49-2.61,4.32-3.07,5.49-0.68
		c2.64,5.39,6.95,4.77,11.59,3.99c7.03-1.19,13.15-4.62,19.3-7.88c11.47-6.1,22.63-12.78,34.02-19.02
		c15.34-8.4,28.09-19.6,35.38-36.03c2.19-0.5,4.38-1,6.57-1.5c0.06,2.17-0.93,4.04-1.8,5.92c-4.94,10.73-13.02,18.91-21.74,26.56
		c-5.91,5.18-12.75,8.97-19.45,13.09c7.52-1.68,14.9-3.84,22.55-4.62c6.62-0.67,13.32-0.7,18.03,4.77c2.08,2.42,3.56,3.66,6.6,2.41
		c0.99-0.41,2.18-0.29,3.25-0.5c13.54-2.67,30.71,5.48,37.36,17.59c4.72,8.6,6.57,17.6,4.56,27.29c-0.26,1.24-1.07,2.5,0.87,3.36
		c4.53,2,9.31,3.89,14.15,3.4c12.29-1.24,24.34-8.09,25.06-24.81c0.27-6.24,0.17-12.53,0.86-18.71c0.57-5.1,0.03-10.05-0.71-14.93
		c-1.32-8.69-5.9-15.29-13.95-19.55c-6.02-3.19-8.14-8.54-7.21-15.46c0.72-5.37,2.88-10.47,3.05-15.83
		c0.42-13.23,0.12-26.47-2.14-39.57c-2.1-12.16-8.76-20.5-20.71-24.28c1.44-1.95,2.87-3.9,4.31-5.84c1.9,2.44,4.98,3.01,7.39,4.66
		c9.77,6.68,13.93,16.48,15.64,27.64c1.46,9.48,1.48,19.04,1.59,28.62c0.09,7.18-0.75,14.16-2.42,21.1
		c-2.05,8.54-1.36,10.88,6.06,15.33c9.27,5.57,13.16,14.13,14.69,24.21c1.13,7.43,0.59,14.87,0.25,22.35
		c-0.26,5.62,3.2,10.5,6.46,14.92c2.61,3.54,6.44,5.38,11.02,5.9c5.31,0.59,9.67-0.69,13.15-4.77c0.74-0.87,1.67-1.57,2.77-1.73
		c5.3-0.76,7.49-4.7,9.2-9.01c1.49-3.76,2.73-7.62,4.05-11.44c0.45-1.3,0.76-2.7-0.03-3.92c-1.77-2.77-1.51-5.67-0.44-8.47
		c6.41-16.81,4.03-33.38-0.87-50.02c-2.32-7.9-5.77-15.37-8.1-23.24c-1.36-4.59-4.27-8.27-6.94-12.07c-1.53-2.17-2.2-4.33-1.57-6.9
		c7.19,6.9,12.87,14.91,17.46,23.73c-1.18,0.93-0.12,1.84,0.14,2.63c3.99,11.93,8.35,23.72,9.1,36.51
		c0.58,9.94,1.23,19.77-2.98,29.19c-0.57,1.29-1.7,3.01-0.74,4.17c2.36,2.88,1.5,5.96,1.24,9.06c-1.1,6.34-4.93,11.52-7.34,17.3
		C597.88,385.71,596.68,387.56,595.64,389.48z"/>
	<path class="st3" d="M391.5,651.39c-4.43,0-8.86-0.18-13.27,0.07c-2.53,0.14-3.28-0.85-3.85-3.11
		c-4.88-19.25-11.33-37.97-18.58-56.46c-5.08-12.96-13.77-22.72-24.52-30.99c-10.98-8.44-21.95-16.86-29.88-28.51
		c-3.84-5.65-3.93-5.52,2.8-6.36c5.48-0.68,10.79-2.14,15.81-4.43c2.04-0.93,3.7-0.75,5.52,0.29c6.59,3.76,13.77,5.63,21.26,6.36
		c1.14,0.11,2.14,0.12,2.54,1.52c2.9,10.23,11.4,14.45,20.02,18.48c2.1,0.98,4.28,2.01,6.53,2.37c4.62,0.74,6.37,3.34,7.58,7.76
		c8.21,29.73,16.19,59.52,23.78,89.42c0.75,2.94,0.26,3.83-2.86,3.65C400.11,651.2,395.8,651.39,391.5,651.39z"/>
	<path class="st3" d="M445.35,114.45c-0.57,0.98-1.14,1.95-1.7,2.93c-3.46-0.77-6.93-1.4-10.5-1.38c-6.5,0.04-13.01,0.03-19.51-0.04
		c-4.38-0.05-8.45-1.24-12.14-3.65c-2.58-1.68-5.33-3.1-8.37-3.68c-14.02-2.67-28.01-2.78-41.74,1.54
		c-3.57,1.12-7.69,1.53-10.26,4.92c-1.48-0.01-3.04,0.49-4.37-0.6c-0.69-1.68-2.08-2.81-3.55-3.61c-13.35-7.3-27.58-9.8-42.56-7.17
		c-4.24,0.75-7.69,3.12-9.44,7.42c-0.66,1.63-0.49,3.08,1,3.8c1.44,0.7,3.46,0.81,4.17-1.01c1.23-3.14,3.88-4.03,6.62-4.56
		c11.58-2.21,22.63-0.14,33.27,4.63c0.77,0.34,1.63,0.66,1.63,1.76c-3.67,0.64-6.91,2.38-10.25,3.89c-3.14-0.45-6.24-0.43-9.42-0.09
		c-11.43,1.22-20.44,6.06-26.17,16.39c-1.98,3.57-3.31,7.39-4.76,11.78c-0.96-1.74-1.53-2.93-2.25-4.04
		c-5-7.79-10.97-14.35-20.7-16.05c-1.91-5.52-3.73-11.09-6.94-16.05c1.22-1.88,2.93-3.23,4.69-4.56c4.96-3.76,10.6-6.29,16.15-8.97
		c1.54,0.85,3.11,1.57,4.77,0.31c5.59-4.25,12.16-5.67,18.91-6.17c14.5-1.07,29.01-1.98,43.53-2.78
		c11.94-0.66,23.22,2.68,34.61,5.74c15.36,4.12,31.29,5.55,46.79,9.04c9.06,2.04,17.97,4.7,26.76,7.71
		C445.05,112.39,445.76,112.93,445.35,114.45z"/>
	<path class="st2" d="M153.17,178.62c-3.35-7.55-9.17-9.62-18.77-6.94c-8.01,2.24-14.19,7.13-19.59,13.16
		c-7.05,7.86-13.86,15.89-18.53,25.5c-2.3,4.73-3.92,9.52-2.28,14.86c0.37,1.22,0.22,2.46-1.17,3.14c-1.34,0.66-2.55,0.62-3.72-0.45
		c-1.63-1.48-3.27-2.95-4.99-4.32c-5.1-4.07-10.93-6.27-17.1-3.48c-6.34,2.86-8.01,9.18-9.02,15.48c-1.13,7-0.6,14.17-2.17,21.15
		c-0.57,2.53-1.6,3.82-4.4,3.84c-6.55,0.04-12.76,1.51-18.29,5.23c1.08-2.65,1.42-5.43,1.37-8.27c4.32-1.91,9.03-2.02,13.59-2.77
		c1.84-0.3,2.44-0.97,2.56-2.77c0.36-5.49,0.7-10.99,1.44-16.43c1.34-9.9,4.44-18.78,15.31-22.11c1.66-0.51,1.56-1.52,1.59-2.78
		c0.1-3.79-0.47-7.63,0.45-11.38c3.87-15.91,13.92-26.34,28.82-32.48c1.34-0.55,3.18-0.41,3.3-2.76c0.23-4.66,2.81-8.24,5.8-11.6
		c4.89-5.5,11.19-9.1,17.27-12.99c1.93,0,3.9-0.24,5.79,0.04c3.01,0.45,4.67-0.59,5.04-3.62c1.91-0.38,3.82-0.81,5.75-1.15
		c9.15-1.58,18.31-3.14,27.66-2.33c-0.29,1.95-1.57,3.39-2.57,4.97c-0.2,0.25-0.41,0.51-0.61,0.76l0.08-0.04
		c-6.27-0.23-12.47,0.66-18.64,1.52c-13.03,1.83-24.88,6.52-34.42,15.87c-2.55,2.51-5.5,5.41-5.17,9.39
		c0.34,4.1-0.85,6.31-5.05,6.76c-1.06,0.11-2.07,0.74-3.09,1.17c-12.66,5.27-26.44,19.32-24.49,37.36c0.13,1.22-0.43,2.75,1.62,3.16
		c3.86,0.77,7.35,2.52,10.93,4.97c1.31-8.03,4.85-14.71,9.47-20.85c3.53-4.7,6.99-9.46,10.77-13.95
		c7.66-9.09,16.57-16.43,28.75-18.5c8.98-1.52,16.52,0.65,21.17,9.25C156.12,175.68,154.65,177.15,153.17,178.62z"/>
	<path class="st3" d="M124.62,139.44c-6.09,3.89-12.39,7.49-17.27,12.99c-2.99,3.36-5.57,6.94-5.8,11.6
		c-0.12,2.36-1.96,2.21-3.3,2.76c-14.9,6.14-24.95,16.58-28.82,32.48c-0.91,3.75-0.34,7.58-0.45,11.38
		c-0.03,1.26,0.07,2.27-1.59,2.78c-10.87,3.33-13.97,12.21-15.31,22.11c-0.74,5.44-1.07,10.95-1.44,16.43
		c-0.12,1.8-0.72,2.47-2.56,2.77c-4.56,0.74-9.26,0.86-13.59,2.77c-3.29-12.29,3.24-22.24,7.8-32.66
		c5.86-13.4,13.47-25.78,22.05-37.58c3.22-4.44,6.67-8.52,12.96-8.37c1.6,0.04,2.75-1.24,2.78-2.92
		c0.14-8.38,5.27-14.09,10.81-19.27c8.42-7.87,18.19-13.64,29.41-16.68C121.69,139.65,123.17,139.63,124.62,139.44z"/>
	<path class="st3" d="M168.85,132.38c-9.35-0.8-18.51,0.75-27.66,2.33c-1.92,0.33-3.83,0.76-5.75,1.15
		c0.01-2.17,1.71-3.37,3.13-4.26c10.78-6.73,20.4-15.16,31.43-21.5c12.88-7.4,26.99-11.35,41.45-13.95
		c13.93-2.51,27.9-4.83,42.01-6.12c4.64-0.43,8.92,0.94,13.19,2.43c-1.66,1.63-4.05,1.46-6,2.45c-6.33,3.22-12.16,7.17-17.69,11.58
		c-4.16-3.59-8.91-5.92-14.36-6.81c-12.9-2.1-24.37,1.78-35.17,8.4C183.37,114.27,175.72,122.94,168.85,132.38z"/>
	<path class="st2" d="M35.11,339.72c0.97-6.13,1.38-12.33,3.53-18.28c1.47-4.05,3.91-7.31,6.62-10.45
		c3.26-3.79,5.68-8.42,9.82-11.31c7.01-4.9,14.76-3.84,22.19-1.26c3.27,1.14,3.81,0.16,4.47-2.53c3.17-12.94,9.65-23.98,19.3-33.18
		c5.1-4.86,10.99-8.13,17.96-9.34c3.61-0.63,7.08,0.13,10.44,1.34c1.41,0.51,2.43,0.52,2.79-1.11c1.58-7.05,5.65-12.98,8.55-19.44
		c0.79-1.75,1.33-3.61,1.99-5.43c0.94,3.21,1.88,6.43,2.83,9.64c-2.71,5.6-6.27,10.79-7.5,17.08c-0.36,1.84-0.29,3.65-0.47,5.47
		c-0.29,2.79-2.2,3.82-4.64,2.57c-12.08-6.18-20.93-4.6-30.28,5.89c-7.7,8.63-13.25,18.48-15.57,29.98
		c-0.4,1.96-0.17,3.92-0.52,5.85c-0.24,1.35-0.62,2.71-2.19,3.1c-1.41,0.35-2.44-0.13-3.53-1.27c-6.51-6.74-20.39-5.84-25.95,1.64
		c-3.56,4.79-8.33,8.68-10.43,14.57c-1.53,4.31-2.6,8.64-2.79,13.22c-0.08,1.81-0.62,3.61-0.94,5.41
		C38.52,342.1,36.64,341.38,35.11,339.72z"/>
	<path class="st2" d="M105.22,408.4c8.39-16.77,18.92-31.77,34.89-42.3c6.08-4.01,12.88-5.97,20.03-6.58
		c2.46-0.21,3.38-1.34,4.1-3.37c1.4-3.97,1.88-8.07,2.21-12.22c4.11,4.45,8.06,9.04,11.69,13.9c-4.34,0.37-8.11,1.77-10.28,5.89
		c-0.92,1.75-2.27,2.43-4.2,2.24c-11.42-1.1-20.23,4.22-28.31,11.46c-10.44,9.35-18.11,20.73-24.49,33.08
		C108.87,410.1,106.9,409.65,105.22,408.4z"/>
	<path class="st3" d="M606.05,366.4c0.27-3.1,1.12-6.18-1.24-9.06c-0.95-1.16,0.17-2.89,0.74-4.17c4.21-9.42,3.56-19.26,2.98-29.19
		c-0.74-12.79-5.11-24.58-9.1-36.51c-0.26-0.79-1.32-1.7-0.14-2.63c6.21,12.65,11.98,25.45,13.8,39.65
		c1.86,14.5-1.02,28.22-6.46,41.56C606.57,366.21,606.25,366.28,606.05,366.4z"/>
	<path class="st2" d="M242.97,106.49c5.53-4.41,11.36-8.36,17.69-11.58c1.96-1,4.34-0.82,6-2.45c3.43,1.04,0.76,3.81,1.6,5.59
		c-5.56,2.68-11.19,5.21-16.15,8.97c-1.76,1.34-3.48,2.68-4.69,4.56C245.93,109.88,244.45,108.19,242.97,106.49z"/>
	<path class="st3" d="M450.41,309.17c-7.29,16.43-20.04,27.63-35.38,36.03c-11.4,6.25-22.55,12.92-34.02,19.02
		c-6.15,3.27-12.26,6.69-19.3,7.88c-4.63,0.78-8.94,1.4-11.59-3.99c-1.17-2.39-4-1.92-5.49,0.68c-3.62,6.32-8.05,11.96-13.26,17.07
		c-9.76,9.55-20.93,16.48-34.46,19.22c-0.14-1.33,0.76-2.28,1.21-3.39c1.99-4.86,4.58-9.44,6.23-14.46
		c3.24-9.87,6.23-19.81,8.69-29.9c0.42-1.74,1.05-2.26,2.81-2.54c5.67-0.9,11.22-2.33,16.65-4.25c11.57-4.1,16.51-14.58,9.34-23.61
		c0.32-0.6,0.86-0.83,1.49-0.93c7.19-1.14,14.15-0.97,20.29,3.67c3.49,2.64,4.97,2.21,6.41-1.92c0.48-1.39,0.94-2.79,1.43-4.18
		c4.05-11.41,9.08-22.07,20.98-27.52c1.5-0.69,2.17-2.09,1.44-3.68c-0.8-1.75-2.46-2.12-4.07-1.48c-3.09,1.22-5.92,2.91-8.47,5.1
		c-7.63,6.56-11.86,15.17-15.08,24.43c-0.4,1.16-0.36,3-2.49,1.88c-3.12-1.63-6.5-1.93-9.94-2.29c-11.45-1.21-22.49-0.08-32.88,5.18
		c-7.99,4.05-14.27,10.31-20.6,16.45c-1.48,1.44-2.53,4.02-4.16,4.41c-1.58,0.37-3.66-1.45-5.55-2.24
		c-4.34-1.81-8.84-2.79-13.56-2.95c-4.2-0.15-4.53-0.57-3.3-4.42c0.98-3.08,0.96-6.28,1.54-9.41c0.38-2.05-0.11-4.25-2.61-4.46
		c-2.43-0.2-3.84,1.24-3.69,3.9c0.22,3.87-0.83,7.51-1.99,11.15c-0.57,1.79-1.44,2.41-3.31,2.71c-5.28,0.85-10.72,1.23-15.47,4.11
		c-4.19-0.06-8.21-1.21-12.26-2.09c-28.5-6.16-56.03-15.38-82.99-26.41c3.08-4.22,7.14-7.28,11.6-9.91
		c6.55-3.86,12.91-8.01,17.74-14.01c1.32-1.64,2.13-2.05,4.08-0.96c3.42,1.9,7,2.48,10.86,0.64c2.03-0.97,4.22-2.04,6.66-1.71
		c0.42,3.29,0.72,6.62,1.92,9.81c1.01-0.52,0.97-1.29,1.18-1.98c2.31-7.46,4.61-14.92,8.71-21.68c7.31-12.02,17.1-13.18,26.82-3.11
		c0.68,0.7,1.31,1.45,1.92,2.21c2.68,3.38,5.34,6.77,8.31,10.55c0.25-7.09-2.15-12.91-4.68-18.7c8.06,2.02,16.09,4.19,24.52,3.74
		c1.62,2.62,3.25,5.25,5.1,8.24c-6.47-0.6-12.39-0.99-18.75,0.95c10.24,3.24,20.17,5.7,29.5,9.9c-1.69,0.27-3.38,0.54-5.07,0.81
		c-12.57,2.01-25.21,3.9-36.07,11.28c-2.32,1.58-3.59,1.03-5.25-0.74c-2.34-2.5-4.75-4.94-7.5-7.04c-1.65-1.26-3.32-1.66-5.14-1.17
		c-2.22,0.59-4.36,1.5-7.38,2.56c4.07,1.05,7.38,1.98,9.93,4.36c2.52,2.34,4.91,4.81,7.36,7.23c0.52,0.52,1.06,1.03,1.61,1.51
		c2.08,1.83,3.95,1.98,6.53,0.34c5.57-3.55,11.26-7.19,17.81-8.59c12.42-2.66,24.85-5.5,37.67-5.46c2.71,1.11,5.42,2.23,8.13,3.33
		c7.16,2.88,13.45,7.27,19.8,11.55c0.12,0.16,0.23,0.32,0.35,0.49c0.04-0.1,0.08-0.2,0.12-0.31c-0.17-0.04-0.35-0.08-0.52-0.11
		c-0.61-5.12-4.9-7.91-7.44-11.81c0.99-0.2,2.14-0.31,2.83,0.38c4.34,4.36,10.89,4.63,15.53,8.46c1.8,1.49,4.09,2.41,5.65-0.27
		c1.4-2.41-0.26-3.66-2.26-4.88c-4.48-2.74-9.15-5.31-12.2-9.84c7.32-4.42,14.7-8.61,20.44-15.3c9.39-10.94,15.21-23.39,17.22-37.57
		c1.73-12.22,0.38-23.98-6.82-34.5c1.93-2.58,2.28-6.4,5.96-7.61c0.4,2.53,0.79,5.06,1.24,7.92c1.57-4.2,0.46-8.42,2.02-12.22
		c1.18,0.12,2.11-0.51,3.11-0.97c14.74-6.87,33.64,0.04,42.36,10.44c5.63,6.72,9.68,14.43,14.59,21.59
		c0.43,0.63,1.19,1.39,0.24,2.25c-3.87-1.77-6.46-1.43-7.56,1.19c-1.29,3.05-0.1,5.27,2.82,6.52c2.36,1.01,3.35,2.17,1.39,4.54
		c-0.83,1-1.14,2.43-1.79,3.6c-1.3,2.35-2.14,5.23-5.99,2.64c-1.79-1.2-4.24-0.21-5.27,1.96c-1.01,2.12-0.88,4.33,1.34,5.85
		c1.01,0.68,2.09,1.26,3.2,1.93c-0.69,1.36-1.41,2.64-2.01,3.97c-1.26,2.8-2.15,5.65-6.38,3.2c-1.95-1.13-4.04,0.36-5.05,2.49
		c-0.99,2.08-0.43,4.19,1.45,5.14c3.02,1.53,2.63,3.06,1.45,5.74c-2.43,5.53-0.75,12.43,4.12,15.43
		c11.1,6.84,22.32,13.55,34.28,18.85C449.64,309.22,450.05,309.14,450.41,309.17z"/>
	<path class="st4" d="M520.27,213.64c-1.23,0-2.56,0.31-3.66-0.05c-5.86-1.95-8.81,1.37-11.72,5.72
		c-3.94,5.89-8.41,11.41-12.52,17.19c-1.26,1.76-2.26,1.96-4.17,0.87c-11.57-6.63-23.2-13.15-34.87-19.61
		c-1.67-0.92-1.94-1.65-1.12-3.39c3.68-7.86,7.1-15.85,10.84-23.69c1.25-2.61,1.17-4.41-0.55-6.92
		c-15.4-22.47-18.22-46.57-6.71-71.28c11.42-24.52,31.44-38.74,58.4-40.99c44.29-3.71,78.57,31.44,77.42,73.47
		c-0.96,35.2-29.23,65.2-64.36,68.34c-2.32,0.21-4.64,0.33-6.96,0.49C520.28,213.74,520.27,213.69,520.27,213.64z M529.02,185.89
		c15.15,0.04,26.89-5.52,35.39-16.69c8.76-11.51,12.31-24.49,6.81-38.64c-4.21-10.84-11.67-18.01-23.86-19.02
		c-2.18-0.18-3.46-1.41-4.63-3.14c-6.34-9.35-14.8-16.15-26.2-17.1c-15.02-1.25-27.54,4.55-35.95,17.28
		c-12.13,18.36-12.3,40.01,0.16,56.77c1.96,2.64,4.57,2.95,6.75,1.59c2.24-1.4,2.43-3.96,0.58-6.4c-7.28-9.55-9.61-20.32-6.75-31.89
		c2.96-11.97,8.46-22.34,21.11-26.78c12.85-4.51,20.3-1.75,29.45,6.73c2.97,2.75,2.67,3.55-0.97,5.23
		c-7.25,3.34-12.04,8.74-13.76,16.62c-2.3,10.51,6.82,19.47,17.29,17.04c9.7-2.25,16.35-13.05,14.23-23.78
		c-0.74-3.72,0.52-3.26,3.02-2.4c8.38,2.86,13.86,13.03,13.4,22.25c-0.63,12.84-6.78,23.2-18.43,29.52
		c-8.82,4.78-18.21,5.34-27.79,2.62c-2.94-0.83-5.13,0.24-5.95,2.74c-0.84,2.54,0.33,4.48,3.3,5.51
		C520.73,185.5,525.38,185.35,529.02,185.89z"/>
	<path class="st3" d="M505.62,233.8c11.95,3.78,18.61,12.13,20.71,24.28c2.26,13.1,2.56,26.34,2.14,39.57
		c-0.17,5.36-2.33,10.46-3.05,15.83c-0.93,6.92,1.19,12.27,7.21,15.46c8.04,4.26,12.63,10.86,13.95,19.55
		c0.74,4.88,1.29,9.83,0.71,14.93c-0.69,6.18-0.6,12.47-0.86,18.71c-0.71,16.72-12.76,23.57-25.06,24.81
		c-4.84,0.49-9.62-1.4-14.15-3.4c-1.94-0.86-1.13-2.12-0.87-3.36c2.01-9.69,0.16-18.69-4.56-27.29
		c-6.65-12.11-23.82-20.26-37.36-17.59c-1.08,0.21-2.27,0.09-3.25,0.5c-3.04,1.25-4.52,0.01-6.6-2.41
		c-4.71-5.47-11.41-5.45-18.03-4.77c-7.65,0.78-15.03,2.94-22.55,4.62c6.69-4.12,13.54-7.9,19.45-13.09
		c8.71-7.65,16.8-15.82,21.74-26.56c0.87-1.88,1.85-3.75,1.8-5.92c2.32-1.79,4.66-3.58,6.29-6.05c0.74-1.12,1.27-1.49,2.58-0.76
		c3.3,1.83,5.59,0.68,6.92-2.71c0.37-0.22,0.49-0.51,0.28-0.9c0,0,0.01-0.1,0.01-0.1c0.59,0.92,1.25,1.8,1.77,2.75
		c3.09,5.72,7.27,10.46,12.67,14.08c3.89,2.61,8.22,4.33,12.56,6.02c1.69,0.66,3.26,1.42,2.58,3.68c-1.06,3.54-0.52,7.04,0.13,10.54
		c2,10.69,5.44,20.85,11.37,30.04c1.09,1.69,2.56,3.38,4.81,1.96c2.41-1.52,1.48-3.48,0.26-5.4c-4.47-6.99-7.49-14.66-9.49-22.64
		c-1.41-5.61-2.72-11.49,0.63-17.1c0.98-1.63-0.02-2.89-1.44-3.62c-2.29-1.17-4.6-2.35-7.02-3.21c-9.71-3.46-17.61-9.06-22.42-18.45
		c-1.9-3.71-3.88-7.37-5.83-11.06c1.28-1.52,2.17,0.04,3.11,0.47c2.57,1.18,4.92,1.11,6.35-1.52c1.35-2.5,0.69-4.99-1.91-6.19
		c-2.52-1.16-2.25-2.37-0.93-4.15c0.58-0.78,1.04-1.65,1.5-2.52c1.73-3.28,3.18-6.6,7.87-3.11c2.05,1.52,4.39,0.19,5.46-2.07
		c1.06-2.22,0.71-4.72-1.67-5.67c-4.24-1.7-2.97-3.76-1.25-6.53C496.38,246.69,500.4,239.84,505.62,233.8z"/>
	<path class="st2" d="M433.32,226.03c0.95-0.86,0.19-1.62-0.24-2.25c-4.92-7.16-8.96-14.87-14.59-21.59
		c-8.72-10.4-27.62-17.32-42.36-10.44c-1,0.46-1.93,1.1-3.11,0.97c-0.64-2.71-0.36-5.44-0.16-8.17c5.36-1.73,10.78-3.29,13.88-8.72
		c0.71-1.25,2.27-2,3.86-1.1c1.48,0.85,1.92,2.34,1.39,3.83c-0.51,1.45-1.45,2.75-2.34,4.39c5.25-0.08,10.07,1.17,14.82,2.68
		c9.63,3.07,16.84,9.39,22.56,17.47c1.53,2.16,2.3,2,4.13,0.44c2.98-2.56,5.15-5.52,6.33-9.25c2.2-6.97,2.8-13.98,2.06-21.32
		c-0.88-8.72-5.05-15.96-9.47-22.96c-3.44-5.46-9.06-9.19-14.1-13.26c-7.38-5.94-15.74-7.4-24.93-5.43
		c-8.77,1.87-17.27,4.48-25.4,8.25c-0.97-1.95-1.93-3.91-2.9-5.86c0.73-0.08,1.55,0.04,2.17-0.26c7.97-3.9,16.45-6.29,25.08-8.03
		c10.7-2.16,20.87-0.82,29.42,6.48c7.53,6.44,16.64,11.58,19.62,22.13c0.12,0.43,1.06,2.76,1.91,0.16c1,5.94,2.75,11.7,4.33,17.51
		c1.17,8.61,0.73,17.1-2.35,25.27c-2.1,5.57-4.98,10.66-11.52,12.63c2.42,4,4.82,7.94,7.21,11.89c-0.07,1.65-1.38,2.72-1.97,4.13
		C435.79,227.59,434.59,227.17,433.32,226.03z"/>
	<path class="st3" d="M440.93,154.17c-0.85,2.6-1.79,0.27-1.91-0.16c-2.97-10.55-12.09-15.69-19.62-22.13
		c-8.55-7.31-18.72-8.65-29.42-6.48c-8.64,1.75-17.11,4.13-25.08,8.03c-0.62,0.3-1.44,0.19-2.17,0.26
		c-3.42-6.91-8.74-12.04-15.06-16.26c0.36-0.05,0.75-0.05,1.08-0.17c10.97-4.13,22.37-5.03,33.92-4.22
		c5.34,0.38,10.63,1.21,15.34,4.26c4.15,2.69,8.76,4.38,13.78,4.52c10.15,0.29,20.3,0.51,30.45,0.76c0,0,0,0,0,0
		c-0.12,0.24-0.11,0.47,0.02,0.7C440.13,133.5,439.37,143.79,440.93,154.17z"/>
	<path class="st2" d="M558.55,213.12c4.32,9.57,7.32,19.45,7.58,30.06c0.18,7.54-2.08,14.22-6.38,20.3c-0.28,0.4-0.57,0.8-0.84,1.21
		c-3.74,5.77-3.9,6.95,0.88,11.71c6.53,6.5,10.18,14.3,11.94,23.16c1.47,7.42,4.47,14.56,4.06,22.32c-0.02,0.37,0.13,0.81-0.02,1.1
		c-2.79,5.29,0.69,9.16,2.89,13.39c2.82,5.43,4.08,11.25,3.79,17.4c-0.13,2.71-1.07,5.05-2.82,7.02c-0.99,1.11-2.34,1.89-3.92,0.9
		c-1.5-0.94-1.89-2.56-1.18-3.88c5.18-9.66-0.37-17.2-5.05-24.7c-1.57-2.52-2.33-4.31-0.69-6.92c1.75-2.78,1.51-6.03,0.87-8.97
		c-1.76-8-3.73-15.97-5.99-23.84c-1.44-5.01-4.51-9.21-8.18-12.93c-6.73-6.8-7.03-10.34-2.1-18.5c2.38-3.94,5.75-7.42,6.19-12.36
		c1.06-11.87-1.16-23.09-6.59-33.68C554.84,214.97,556.7,214.04,558.55,213.12z"/>
	<path class="st2" d="M473.67,284.75c1.94,3.68,3.93,7.35,5.83,11.06c4.82,9.39,12.71,14.99,22.42,18.45
		c2.41,0.86,4.73,2.04,7.02,3.21c1.42,0.73,2.42,1.99,1.44,3.62c-3.35,5.6-2.04,11.49-0.63,17.1c2,7.97,5.02,15.64,9.49,22.64
		c1.23,1.92,2.15,3.88-0.26,5.4c-2.25,1.43-3.72-0.27-4.81-1.96c-5.93-9.2-9.38-19.35-11.37-30.04c-0.65-3.5-1.19-7.01-0.13-10.54
		c0.68-2.27-0.89-3.02-2.58-3.68c-4.34-1.69-8.68-3.41-12.56-6.02c-5.4-3.62-9.58-8.37-12.67-14.08c-0.52-0.96-1.18-1.84-1.77-2.75
		c-0.15-0.46-0.15-1.09-0.46-1.37C467.94,291.6,471.06,288.21,473.67,284.75z"/>
	<path class="st2" d="M442.25,122.58c-10.15-0.25-20.3-0.46-30.45-0.76c-5.02-0.15-9.63-1.83-13.78-4.52
		c-4.71-3.05-10-3.89-15.34-4.26c-11.55-0.81-22.95,0.09-33.92,4.22c-0.34,0.13-0.72,0.12-1.08,0.17c-2.18-0.78-4.37-1.56-6.55-2.34
		c2.57-3.39,6.68-3.8,10.26-4.92c13.73-4.32,27.72-4.21,41.74-1.54c3.03,0.58,5.78,2,8.37,3.68c3.69,2.41,7.76,3.6,12.14,3.65
		c6.5,0.08,13.01,0.08,19.51,0.04c3.57-0.02,7.04,0.6,10.5,1.38C443.66,119.24,443.15,120.96,442.25,122.58z"/>
	<path class="st2" d="M440.25,240.43c0.41,0.19,0.98,0.41,1.5,0.7c10.98,6.17,21.91,12.43,32.96,18.47
		c2.32,1.27,2.24,2.33,0.93,4.11c-1.8,2.45-2.54,6.69-5.05,7.25c-2.15,0.48-5.07-2.4-7.63-3.83c-8.44-4.7-16.81-9.53-25.33-14.06
		c-3.05-1.62-4.32-3.15-1.97-6.31c1.15-1.55,1.88-3.42,2.81-5.15C438.81,240.96,439.14,240.28,440.25,240.43z"/>
	<path class="st2" d="M465.85,279.97c-1.47,2.34-2.93,4.89-4.64,7.26c-0.68,0.95-1.56-0.17-2.23-0.54
		c-10.6-5.88-21.15-11.84-31.76-17.7c-1.93-1.06-2.19-2.08-1.22-4.08c3.19-6.53,3.07-6.5,9.49-2.85
		c9.26,5.26,18.59,10.41,27.87,15.63C464.26,278.2,465.48,278.41,465.85,279.97z"/>
	<path class="st2" d="M485.54,247.18c-1.05,1.72-2.09,3.69-3.39,5.46c-0.72,0.99-1.55-0.08-2.22-0.45
		c-11.46-6.38-22.89-12.8-34.36-19.16c-1.49-0.83-1.9-1.66-0.91-3.16c0.67-1.02,1.18-2.15,1.67-3.28c0.6-1.41,1.33-1.82,2.82-0.98
		c11.73,6.64,23.5,13.22,35.25,19.83C484.98,245.77,485.84,245.96,485.54,247.18z"/>
	<path class="st3" d="M438.59,221.46c-2.39-3.95-4.78-7.89-7.21-11.89c6.54-1.97,9.42-7.06,11.52-12.63
		c3.08-8.17,3.52-16.66,2.35-25.27c2.46,4.85,4.75,9.79,7.72,14.36c0.57,0.87,1.55,1.65,0.92,2.96
		C448.71,199.78,444.55,211.04,438.59,221.46z"/>
	<path class="st2" d="M421.12,275.95c0.83,0.43,1.82,0.9,2.77,1.43c9.71,5.44,19.44,10.85,29.09,16.38c1.1,0.63,3.69,0.79,2.62,2.93
		c-1.04,2.07-2.98,3.68-5.68,2.93c-1.28-0.36-2.47-1.08-3.64-1.74c-8.01-4.48-16.02-8.96-24-13.49c-3.15-1.79-4.13-4.33-2.81-6.98
		C419.78,276.8,420,276.02,421.12,275.95z"/>
	<path class="st2" d="M442.27,123.27c-0.13-0.23-0.14-0.46-0.02-0.7C443.02,122.79,442.68,123.03,442.27,123.27z"/>
	<path class="st2" d="M473.06,297.24c0.21,0.39,0.09,0.69-0.28,0.9C472.87,297.85,472.96,297.54,473.06,297.24z"/>
	<path class="st1" d="M152.99,315.95c26.96,11.03,54.49,20.25,82.99,26.41c4.05,0.88,8.06,2.03,12.26,2.09
		c3.69,1.03,7.45,1.6,11.27,1.78c5.45,1.56,11.11,1.58,16.69,1.86c7.9,0.4,15.83,0.65,23.72-0.53c1.18,0.02,2.36,0.04,3.53,0.06
		c10.61-0.7,21.06-2.08,30.56-7.39c6.71-3.75,7.69-7.37,3.77-14.27c-0.48-1.03-0.95-2.06-1.59-3.45c2.72,0.95,3.9,3.06,5.67,4.42
		c7.17,9.03,2.23,19.52-9.34,23.61c-5.43,1.92-10.99,3.35-16.65,4.25c-1.76,0.28-2.38,0.8-2.81,2.54
		c-2.46,10.09-5.45,20.03-8.69,29.9c-1.65,5.02-4.24,9.6-6.23,14.46c-0.46,1.12-1.35,2.07-1.21,3.39c-1.43,1.92-2.47,4.03-3.1,6.34
		c-5.28,9.28-10.3,18.72-16.3,27.57c-2.27,2.68-4.51,5.38-6.82,8.03c-3.59,4.12-7.94,7.24-12.93,9.46
		c-13.51,2.4-22.32-5.1-30.07-14.51c-3.26-3.96-6.07-8.31-9.08-12.48c-1.33-2.23-2.66-4.46-3.99-6.69
		c-10.26-18.44-18.38-38.01-29.76-55.84c-2.03-3.18-4.47-6.11-6.72-9.15c-3.64-4.85-7.58-9.45-11.69-13.9
		c-4.25-5.66-8.55-11.29-12.71-17.02c-1.15-1.59-2.48-2.63-4.35-3.04c-2.35-1.01-4.7-2.02-7.05-3.04c-4.65-2.89-9.55-5.34-13.4-9.44
		c-6.93-7.38-5.83-15.35,3.03-20.19c3.46-1.89,7.21-2.87,11.87-3.6c-2.95,2.73-5.46,4.86-7.76,7.19c-4.53,4.59-4.29,8.21,0.69,12.33
		c2.93,2.42,6.13,4.41,9.63,5.92C148.42,314.4,150.74,315.1,152.99,315.95z M167.14,331.32c-0.45-0.35-0.91-0.71-1.36-1.06
		c-0.05,0.1-0.1,0.19-0.15,0.29c0.52,0.24,1.04,0.49,1.56,0.73c0.31,0.51,0.52,1.1,0.93,1.51c13.3,13.47,24.63,28.36,33.36,45.24
		c2.27,4.4,3.67,9.32,7.13,13.09c-0.34,0.74-0.16,1.44,0.19,2.11c6.69,12.94,13.01,26.11,21.42,38.07
		c3.87,5.5,8.05,10.8,13.91,14.43c6.6,4.08,10.86,3.86,16.69-1.06c5.96-5.03,10.35-11.35,14.4-17.92
		c7.58-12.3,14.2-25.09,19.36-38.61c4.89-9.75,9.79-19.49,14.66-29.25c0.41-0.82,1.38-1.73,0.56-2.66
		c-0.61-0.69-1.61-0.09-2.45-0.06c-8.95,0.36-17.92,1.22-26.85,0.85c-13.2-0.54-26.31-2.25-39.34-4.75
		c-18.54-3.56-36.61-8.74-54.58-14.43C180.06,335.76,173.89,332.68,167.14,331.32z"/>
	<path class="st2" d="M214.62,422.82c1.33,2.23,2.66,4.46,3.99,6.69c-4.36,0.16-8.58-0.55-12.52-2.42c-1.87-0.89-2.81-0.47-3.8,1.29
		c-4.31,7.67-10.84,12.91-18.8,16.4c-1.97,0.87-4.2,1.17-6.91,1.89c4.71,3.74,8.1,7.96,10.17,13.17c2.34,5.89,3.71,11.95,3.23,18.3
		c-0.21,2.71,0.37,3.65,3.34,2.91c16.31-4.09,32.31-2.03,48.12,2.82c1.16,0.36,2.3,0.85,3.38,1.43c3.77,2.02,6.25,2.15,10.46,0.73
		c7.35-2.49,15.08-3.03,22.68-4.25c5.99-0.96,11.96-1.16,17.8,0.8c6.6,2.21,10.57,6.88,12.21,13.55c0.43,1.73,0.37,3.74-1.68,4.34
		c-2.04,0.6-3.32-0.61-4.12-2.63c-3.23-8.2-6.25-10.08-14.92-10.29c-9.28-0.23-18.23,1.91-27.29,3.3c-2.41,0.37-4.62,1.54-6.59,3.13
		c-2.06,1.66-4.5,2.52-6.66,0.47c-7.85-7.44-18.03-7.51-27.75-8.96c-10.49-1.57-20.69,0.39-30.8,2.94
		c-3.65,0.92-5.34-0.21-4.71-4.01c1.14-6.82,0.72-13.41-1.49-19.92c-1.68-4.95-4.27-9.23-8.5-12.55c-2.42-1.89-5.44-3.57-5.65-7.31
		c-0.02-0.37-0.51-0.96-0.86-1.02c-6.38-1.16-10.62-5.9-15.61-9.35c-2.63-1.81-5.08-3.9-8.18-4.86c-2.11-0.65-2.14-2.3-1.75-3.86
		c0.49-1.95,2.03-2.16,3.8-1.65c4.6,1.33,8.62,3.87,11.91,7.12c5.17,5.11,11.87,6.52,18.31,8.57c3.32,1.06,6.58-0.38,9.46-2.13
		c4.32-2.63,8.02-5.93,11.05-10.08c2.19-3,2.33-5.37,0.2-8.55c-3.67-5.49-7.18-11.12-9.2-17.52c-0.67-2.11-1.41-4.37,1.15-5.39
		c2.61-1.04,3.5,1.08,4.33,3.19c2.38,6.07,5.39,11.88,9.24,17.11C204.7,420.45,209.3,422.57,214.62,422.82z"/>
	<path class="st1" d="M248.11,267.1c2.53,5.79,4.94,11.62,4.68,18.7c-2.97-3.78-5.63-7.17-8.31-10.55
		c-0.61-0.76-1.24-1.51-1.92-2.21c-9.72-10.07-19.52-8.9-26.82,3.11c-4.11,6.75-6.4,14.21-8.71,21.68
		c-0.21,0.69-0.18,1.46-1.18,1.98c-1.2-3.19-1.5-6.52-1.92-9.81c-0.03-2-0.05-4.01-0.08-6.01c0.53-3.18,1.05-6.37,1.58-9.55
		c-0.89-0.97-1.89-0.58-2.89-0.23c-0.49,0.01-0.98,0.01-1.47,0.02c-6.38-0.51-12.76-0.67-19.14,0.08c-1.71,0.13-3.43,0.48-5.12,0.36
		c-7.74-0.55-15.42,0.95-24.03,0.83c5.45-3.91,10.89-5.52,16.89-7.24c-11.11-7.78-19.72-17.16-24.07-29.88
		c-0.94-3.21-1.88-6.43-2.83-9.64c-1.23-7.49-2.01-15.02-1.32-22.59c0.95-10.39,5.2-19.46,11.71-27.53
		c1.48-1.47,2.95-2.94,4.43-4.41c5.87-4.57,12.43-7.94,19.1-11.13c1.02,0.23,1.9-0.21,2.84-0.48c9.31-2.74,18.71-3.34,28.22-1.1
		c8.17,1.73,15.14,5.76,21.34,11.23c1.41,1.47,2.82,2.95,4.24,4.42c5.19,8.16,8.69,16.96,9.95,26.6c1.02,4.64,0.34,9.37,0.67,14.04
		c-0.59,11.26-4,21.7-9.21,31.61c-1.46,1.83-2.91,3.65-4.63,5.81C238.8,255.91,243.9,260.87,248.11,267.1z M195.64,168.67
		c-4.13-0.33-8.72,0.5-13.16,1.89c-22.16,6.94-34.12,22.44-32.84,44.17c1.13,19.13,8.37,36.3,20.7,51.19c1.17,1.42,2.16,1.8,4,1.46
		c10.78-1.99,21.61-2.34,32.45-0.43c1.68,0.3,2.7,0.07,3.65-1.46c1.86-2.95,4.37-5.56,7.5-6.87c3.56-1.49,5.16-4.24,6.69-7.29
		c0.66-1.31,1.17-2.69,1.83-3.99c6.77-13.34,10.75-27.13,8.59-42.38C231.86,182.43,217.38,168.67,195.64,168.67z"/>
	<path class="st2" d="M142.34,320.83c2.35,1.01,4.7,2.02,7.05,3.04c-1.02,0.04-1.91,0.17-2.24,1.42c-0.37,1.42-1.18,2.76-1.35,4.19
		c-0.55,4.51-3.25,5.29-7.37,5.6c-16.83,1.24-32.2,7.17-46.48,15.95c-4.18,2.57-5.83,8.95-4.04,14.25c0.81,2.38,1.23,4.62-1.55,5.43
		c-2.8,0.82-3.86-1.73-4.51-3.78c-2.11-6.65-0.45-17.35,8.47-22.25c14.61-8.03,29.8-14.34,46.67-15.57
		c1.71-0.12,2.65-0.71,3.13-2.43C140.68,324.67,141.58,322.77,142.34,320.83z"/>
	<path class="st2" d="M203.85,284c0.03,2,0.05,4.01,0.08,6.01c-2.45-0.33-4.64,0.74-6.66,1.71c-3.85,1.84-7.44,1.25-10.86-0.64
		c-1.95-1.08-2.76-0.68-4.08,0.96c-4.82,6-11.19,10.15-17.74,14.01c-4.46,2.63-8.52,5.69-11.6,9.91c-2.25-0.85-4.57-1.55-6.6-2.91
		c2.76-2.53,5.43-5.17,8.31-7.57c5.65-4.7,12.46-7.72,18.17-12.37c1.73-1.41,3.2-2.97,4.53-4.74c1.52-2.01,1.9-3.86,0.2-5.95
		c-1.4-1.72-0.5-4.07-1.45-5.97c-0.29-0.58,0.18-1.24,0.91-1.27c1.67-0.08,3.48-0.69,4.94,0.56c0.71,0.61,1.2,1.53,1.67,2.38
		c1.25,2.26,2.72,4.35,4.61,6.13c2.28,2.14,4.54,3.35,7.79,1.49C198.37,284.41,201.07,283.75,203.85,284z"/>
	<path class="st2" d="M181.93,274.32c6.38-0.75,12.76-0.59,19.14-0.08C194.69,274.82,188.31,274.67,181.93,274.32z"/>
	<path class="st2" d="M202.54,274.22c1-0.35,2-0.74,2.89,0.23C204.45,274.55,203.47,274.75,202.54,274.22z"/>
	<path class="st2" d="M466.73,453.67c-0.85,0-0.98,0.03-1.09,0c-7.16-2.41-13.71-0.78-20.45,2.17c-5.38,2.36-11.47,2.2-17.37,2.37
		c-8.06,0.23-16.11,0.54-24.11-0.79c-2.97-0.49-5.06-2.32-6.91-4.54c-1.23-1.47-1.29-2.97,0.14-4.23c1.35-1.19,3.31-1.43,4.24,0.09
		c1.79,2.93,4.77,3.21,7.38,3.36c10.9,0.62,21.81,0.35,32.63-1.29c4.05-0.62,7.79-2.2,10.56-5.47c1.23-1.45,2.85-1.7,4.3-0.74
		c5.45,3.62,11.23,3.38,17.2,1.84c8.59-2.22,16.93-4.99,24.21-10.28c2.41-1.75,4.53-3.68,5.48-6.7c0.66-2.1,2.49-3.46,4.58-2.68
		c10.2,3.79,20.02,1.13,29.91-1.31c2.35-0.58,4.83-0.99,7.24-0.95c6.42,0.1,10.85-3.24,14.68-7.84c0.39-0.47,0.89-0.85,1.29-1.31
		c1.31-1.49,2.82-2.1,4.46-0.65c1.62,1.43,1.08,2.82-0.02,4.51c-4.46,6.88-10.91,10.62-18.82,11.39c-7.34,0.71-14.5,2.15-21.6,3.97
		c-4.83,1.24-9.46-0.04-14.1-1.01c-1.28-0.27-2.38-0.7-3.18,0.73c-3.64,6.54-10.04,9.49-16.39,12.39
		C483.04,450.32,474.78,452.94,466.73,453.67z"/>
	<path class="st3" d="M277.52,439c6-8.85,11.02-18.29,16.3-27.57c7.39-0.18,14.12-2.78,20.6-5.97
		c12.92-6.35,23.39-15.59,31.52-27.45c1.18-1.72,1.91-2.4,4.21-1.08c5.13,2.96,10.71,1.87,16.08,0.43c2.95-0.79,5.75-2.12,8.63-3.14
		c17.94-6.38,35.58-13.64,54.13-18.23c5.2-1.29,10.46-1.38,15.71-1.05c3.21,0.2,6.09,1.51,6.43,5.34c0.31,3.44,2.12,3.97,5.07,3.13
		c6.13-1.74,12.25-2.79,18.75-2c12.22,1.47,24.25,13.53,25.7,25.88c0.89,7.54,0.44,14.91-4.65,20.61
		c-6.55,7.34-14.85,11.98-25.25,11.23c-2.59-0.19-4.55-1.63-6.35-3.39c-1.85-1.8-3.97-1.51-4.81,0.67
		c-1.71,4.45-5.49,6.19-9.29,7.74c-21.54,8.76-41.5,4.48-60.39-7.7c-2.99-1.93-5.18-1.24-5.79,2.23c-0.52,2.96-2.13,5.26-4.43,6.94
		c-15.7,11.45-32.96,19.17-52.4,21.63c-9.49,1.2-18.96,1.64-28.44-0.05c-6.01-1.07-11.61-3.06-16.39-6.95
		C280.94,439,279.51,438.05,277.52,439z"/>
	<path class="st0" d="M341.13,115.09c2.18,0.78,4.37,1.56,6.55,2.34c6.31,4.22,11.64,9.36,15.06,16.26c0.97,1.95,1.93,3.91,2.9,5.86
		c3.93,11.23,6.17,22.78,6.77,34.66c0.08,3.28-0.42,6.57,0.29,9.83c-0.05,0.2,0,0.37,0.16,0.51c-0.2,2.73-0.49,5.46,0.16,8.17
		c-1.56,3.8-0.45,8.01-2.02,12.22c-0.45-2.85-0.84-5.39-1.24-7.92c-0.68-3.91-1.36-7.83-2.04-11.75c-1.07-8.76-3.16-17.3-5.64-25.74
		c-1.57-5.36-2.88-10.85-6.18-15.54c-3.99-11.2-13.28-20.29-25.03-17.56c-6.64,1.23-11.84,5.04-16.51,9.58
		c-12.26,11.94-20.41,26.66-27.89,41.82c-1.39,2.71-2.77,5.42-4.16,8.14c-1.82,3.89-3.64,7.78-5.47,11.67
		c-0.23-0.08-0.45-0.17-0.68-0.25c1.35-5.94,2.69-11.87,4.04-17.81c1.1-3.31,2.2-6.61,3.3-9.92c6.08-16.26,13.76-31.58,26.15-44.1
		c2.66-1.97,5.33-3.95,7.99-5.92c3.34-1.51,6.58-3.26,10.25-3.89c2.95-0.42,5.91-0.84,8.86-1.27
		C338.09,115.58,339.65,115.07,341.13,115.09z"/>
	<path class="st0" d="M242.97,106.49c1.48,1.7,2.96,3.39,4.44,5.09c3.21,4.96,5.02,10.53,6.94,16.05c0.28,2.03,0.57,4.07,0.85,6.1
		c-0.87,1.29,0.4,2.27,0.49,3.44c1.23,16.46-0.11,32.56-6.63,47.93c-0.81,1.9-1.57,3.94-4.15,5.66c4.06-11.43,3.87-22.59,3.63-33.71
		c-0.2-8.95-1.15-17.83-4.14-26.36c-1.05-3.38-1.69-6.95-4.35-9.61c-2.05-5.3-5.95-8.68-11.36-10c-11.29-2.76-21.44,0.59-31.05,6.35
		c-9.95,4.67-17.96,11.8-25.22,19.87c-2.9,2.97-5.2,6.4-7.6,9.76c-0.57,0.8-0.82,2.55-2.2,1.95c-1.69-0.74,0.02-1.88,0.25-2.71
		c0.8-2.79,1.88-5.49,2.86-8.22c0,0-0.08,0.04-0.08,0.04c0.2-0.25,0.41-0.51,0.61-0.76c1.01-1.58,2.29-3.02,2.57-4.97
		c6.87-9.44,14.52-18.11,24.59-24.29c10.8-6.63,22.27-10.51,35.17-8.4C234.06,100.57,238.81,102.9,242.97,106.49z"/>
	<path class="st2" d="M255.2,133.73c-0.28-2.03-0.57-4.07-0.85-6.1c9.73,1.7,15.7,8.26,20.7,16.05c0.71,1.11,1.29,2.31,2.25,4.04
		c1.45-4.39,2.78-8.21,4.76-11.78c5.73-10.33,14.74-15.17,26.17-16.39c3.18-0.34,6.28-0.37,9.42,0.09
		c-2.66,1.97-5.33,3.95-7.99,5.92c-7.14,0.15-13.62,2.36-18.31,7.77c-9.16,10.58-10.85,23.01-7.84,36.33
		c-1.1,3.31-2.2,6.61-3.3,9.91c-0.64-2.1-1.06-4.29-1.96-6.27c-2.1-4.62-0.22-10.52-4.68-14.36c-0.21-0.18-0.15-0.7-0.19-1.06
		C272.14,146.21,265.43,138.64,255.2,133.73z"/>
	<path class="st2" d="M336.76,114.49c-2.95,0.42-5.91,0.84-8.86,1.27c0.01-1.09-0.86-1.41-1.63-1.76
		c-10.64-4.76-21.68-6.84-33.27-4.63c-2.73,0.52-5.38,1.42-6.62,4.56c-0.72,1.82-2.73,1.71-4.17,1.01c-1.48-0.72-1.66-2.17-1-3.8
		c1.75-4.3,5.2-6.68,9.44-7.42c14.99-2.63,29.22-0.13,42.56,7.17C334.68,111.68,336.07,112.81,336.76,114.49z"/>
	<path class="st3" d="M165.74,138.08c-0.97,2.74-2.06,5.44-2.86,8.22c-0.24,0.83-1.94,1.97-0.25,2.71c1.38,0.61,1.63-1.14,2.2-1.95
		c2.4-3.36,4.71-6.79,7.6-9.76c2.58-0.02,5.16,0.03,7.74-0.09c1.77-0.08,3.69-0.52,3.86-2.66c0.39-5.05,4.15-7.15,7.94-8.79
		c9.04-3.91,18.64-5.3,28.41-4.55c4.04,0.31,8.45,0.33,12.11,3.31c-0.6,0.32-0.9,0.56-1.25,0.65c-14.46,3.8-24.69,12.45-30.29,26.39
		c-0.51,1.28-1.17,2.08-2.68,1.97c-4.16-0.29-8.05,1.09-11.81,2.45c-3.83,1.38-7.96,2.75-9.76,7.1c-6.67,3.19-13.24,6.56-19.1,11.13
		c-4.65-8.6-12.19-10.77-21.17-9.25c-12.18,2.06-21.09,9.41-28.75,18.5c-3.78,4.49-7.24,9.26-10.77,13.95
		c-4.62,6.14-8.15,12.82-9.47,20.85c-3.58-2.45-7.07-4.19-10.93-4.97c-2.05-0.41-1.49-1.94-1.62-3.16
		c-1.95-18.04,11.83-32.09,24.49-37.36c1.02-0.42,2.03-1.05,3.09-1.17c4.2-0.45,5.39-2.66,5.05-6.76c-0.33-3.98,2.62-6.88,5.17-9.39
		c9.53-9.36,21.39-14.05,34.42-15.87C153.27,138.73,159.47,137.84,165.74,138.08z"/>
	<path class="st3" d="M166.27,137.35c-0.2,0.25-0.41,0.51-0.61,0.76C165.87,137.86,166.07,137.61,166.27,137.35z"/>
	<path class="st1" d="M363.79,204.63c7.2,10.52,8.56,22.28,6.82,34.5c-2.01,14.17-7.83,26.63-17.22,37.57
		c-5.74,6.69-13.12,10.88-20.44,15.3c-3.38,1.37-6.75,2.74-10.13,4.1c-1.54,0.62-1.75,1.25-0.05,1.94c0.24,0.04,0.48,0.09,0.72,0.13
		l-0.09-0.02c2.54,3.9,6.83,6.7,7.44,11.81l0.05-0.07c-6.35-4.27-12.64-8.66-19.8-11.55c-2.72-1.09-5.42-2.22-8.13-3.33
		c-4.82-1.72-9.43-4.04-14.49-5.09c-9.33-4.2-19.26-6.66-29.5-9.9c6.36-1.93,12.28-1.54,18.75-0.95c-1.85-2.99-3.48-5.62-5.1-8.24
		c-0.97-2.22-1.94-4.43-2.91-6.65c-2.55-6.42-3.66-13.11-3.68-20c0.04-2.35,0.08-4.71,0.11-7.06c0.7-0.53,0.49-1.31,0.57-2.03
		c1.85-16.4,7.61-30.82,20.97-41.4c1.89-1.29,3.78-2.57,5.67-3.86c2.6-1.04,5.14-2.28,7.81-3.1c18.31-5.64,35.64-3.65,51.8,6.9
		c1.94,1.65,3.89,3.31,5.83,4.96c0.28,0.27,0.56,0.55,0.83,0.82C361.02,201.17,362.41,202.9,363.79,204.63z M356.83,210.21
		c-0.29-0.63-0.76-0.78-1.38-0.49c0.22,0.34,0.44,0.69,0.67,1.03c5.21,12.53,3.42,24.22-4.52,34.98c-3.26,4.41-7.86,6.85-13.45,5.81
		c-5.29-0.98-7.93-5.16-9.36-9.88c-2.79-9.21-1.71-18.24,2.84-26.62c5.63-10.36,10.74-12.15,21.66-8.46
		c0.08,0.03,0.22-0.1,0.38-0.17c-0.26-1.28-1.24-1.94-2.15-2.75c-9.73-8.78-21.28-11.88-34.16-11.45
		c-18.17,0.61-32.8,11.37-38.83,28.52c-3.78,10.74-4.07,21.74-3.78,32.94c0.21,7.83,1.9,15.25,4.18,22.63
		c0.7,2.27,1.98,3.36,4.51,3.81c12.29,2.21,23.77,6.62,34.04,13.81c1.81,1.27,2.77,0.64,4.11-0.32
		c7.36-5.29,13.95-11.43,20.54-17.66c11.35-10.73,18.15-23.53,20.25-38.87C363.68,227.54,362.82,218.32,356.83,210.21z
		 M345.27,217.31c0-1.89-0.03-4.8-3.37-5.65c-3.34-0.85-5.18,1.44-6.64,4.01c-1.74,3.06-2.59,6.32-1.72,9.83
		c1.08,4.33,4.78,5.44,8.02,2.32C344.24,225.23,345.37,221.91,345.27,217.31z"/>
	<path class="st2" d="M259.51,346.23c-3.82-0.18-7.58-0.75-11.27-1.78c4.75-2.87,10.2-3.25,15.47-4.11c1.87-0.3,2.74-0.93,3.31-2.71
		c1.16-3.65,2.21-7.29,1.99-11.15c-0.15-2.66,1.26-4.11,3.69-3.9c2.5,0.21,2.99,2.4,2.61,4.46c-0.58,3.13-0.56,6.33-1.54,9.41
		c-1.23,3.86-0.9,4.28,3.3,4.42c4.71,0.16,9.22,1.15,13.56,2.95c1.89,0.79,3.96,2.61,5.55,2.24c1.64-0.39,2.68-2.97,4.16-4.41
		c6.34-6.14,12.61-12.4,20.6-16.45c10.38-5.26,21.43-6.39,32.88-5.18c3.44,0.36,6.82,0.67,9.94,2.29c2.13,1.11,2.09-0.72,2.49-1.88
		c3.22-9.26,7.45-17.88,15.08-24.43c2.55-2.19,5.38-3.88,8.47-5.1c1.61-0.64,3.27-0.27,4.07,1.48c0.73,1.59,0.06,2.99-1.44,3.68
		c-11.9,5.45-16.93,16.11-20.98,27.52c-0.49,1.39-0.95,2.79-1.43,4.18c-1.43,4.13-2.91,4.57-6.41,1.92
		c-6.14-4.64-13.1-4.81-20.29-3.67c-0.63,0.1-1.17,0.33-1.49,0.93c-1.77-1.36-2.94-3.46-5.67-4.42c0.64,1.39,1.12,2.42,1.59,3.45
		c-14.71,2.03-24.89,11.27-34.33,21.65c-1.18-0.02-2.36-0.04-3.53-0.06c-4.07,0.53-8.58,1.38-12.2,0.75
		C278.31,346.68,268.98,346.01,259.51,346.23z"/>
	<path class="st2" d="M288.49,289.93c5.05,1.06,9.67,3.38,14.49,5.09c-12.82-0.04-25.25,2.8-37.67,5.46
		c-6.54,1.4-12.24,5.04-17.81,8.59c-2.57,1.64-4.44,1.48-6.53-0.34c-0.55-0.49-1.08-1-1.61-1.51c-2.45-2.41-4.84-4.88-7.36-7.23
		c-2.55-2.37-5.86-3.3-9.93-4.36c3.02-1.07,5.16-1.97,7.38-2.56c1.83-0.49,3.49-0.09,5.14,1.17c2.76,2.1,5.16,4.54,7.5,7.04
		c1.66,1.77,2.92,2.32,5.25,0.74c10.85-7.38,23.49-9.27,36.07-11.28C285.11,290.47,286.8,290.2,288.49,289.93z"/>
	<path class="st2" d="M269.73,264.2c0.97,2.22,1.94,4.43,2.91,6.65c-8.43,0.45-16.47-1.72-24.52-3.74
		c-4.22-6.24-9.31-11.19-18-11.89c1.72-2.16,3.18-3.98,4.63-5.81c0.9,0.24,1.28,1.02,1.85,1.65
		C245.46,260.89,256.72,264.76,269.73,264.2z"/>
	<path class="st2" d="M358.81,198.62c-1.94-1.65-3.89-3.31-5.83-4.96c0.33-1.94,0.52-3.83-0.47-5.69c-0.68-1.27-1.48-2.65,0.12-3.93
		c1.6-1.28,3.07-1,4.67,0.09c3.24,2.22,6.75,2.53,10.42,1.16c0.68,3.92,1.36,7.83,2.04,11.75c-3.68,1.21-4.03,5.03-5.96,7.61
		c-1.38-1.73-2.77-3.46-4.15-5.2c1.57-2.4,3.14-4.79,4.76-7.27c-5.21-0.52-5.21-0.52-5.41,4.26
		C358.95,197.16,358.87,197.89,358.81,198.62z"/>
	<path class="st2" d="M322.78,298.05c-1.7-0.69-1.5-1.32,0.05-1.94c3.38-1.36,6.75-2.73,10.13-4.1c3.05,4.53,7.72,7.1,12.2,9.84
		c2,1.22,3.66,2.48,2.26,4.88c-1.56,2.68-3.85,1.77-5.65,0.27c-4.64-3.84-11.18-4.1-15.53-8.46c-0.69-0.7-1.84-0.59-2.83-0.38
		c0,0,0.09,0.02,0.09,0.02C323.37,297.55,323.14,297.41,322.78,298.05z"/>
	<path class="st1" d="M330.86,309.97c0.17,0.04,0.35,0.08,0.52,0.11c-0.04,0.1-0.08,0.2-0.12,0.31c-0.12-0.16-0.23-0.32-0.35-0.49
		C330.91,309.9,330.86,309.97,330.86,309.97z"/>
	<path class="st2" d="M529.02,185.89c-3.64-0.54-8.28-0.39-12.79-1.94c-2.97-1.02-4.14-2.97-3.3-5.51c0.83-2.5,3.01-3.58,5.95-2.74
		c9.58,2.72,18.97,2.16,27.79-2.62c11.65-6.32,17.8-16.68,18.43-29.52c0.46-9.21-5.02-19.38-13.4-22.25
		c-2.5-0.86-3.76-1.32-3.02,2.4c2.12,10.73-4.53,21.53-14.23,23.78c-10.47,2.43-19.59-6.53-17.29-17.04
		c1.72-7.88,6.52-13.28,13.76-16.62c3.65-1.68,3.94-2.48,0.97-5.23c-9.15-8.48-16.6-11.24-29.45-6.73
		c-12.65,4.44-18.15,14.81-21.11,26.78c-2.86,11.57-0.53,22.34,6.75,31.89c1.86,2.44,1.66,5-0.58,6.4
		c-2.18,1.36-4.79,1.05-6.75-1.59c-12.47-16.75-12.29-38.4-0.16-56.77c8.41-12.73,20.93-18.53,35.95-17.28
		c11.4,0.95,19.86,7.75,26.2,17.1c1.17,1.73,2.44,2.96,4.63,3.14c12.19,1.01,19.64,8.18,23.86,19.02
		c5.5,14.15,1.95,27.13-6.81,38.64C555.91,180.38,544.17,185.93,529.02,185.89z M540.5,126.17c0.16-1.1-0.58-2.68-1.08-4.3
		c-0.3-0.99-0.84-1.69-2.16-1.22c-5.03,1.8-9.13,4.68-11.18,9.79c-1.11,2.76-1.23,5.62,1.55,7.57c2.73,1.92,5.48,1.56,8.04-0.53
		C539.04,134.74,540.32,131.06,540.5,126.17z"/>
	<path class="st3" d="M372.85,184.55c-0.16-0.14-0.21-0.31-0.16-0.51c0.32-3.29,0.87-6.58-0.29-9.83
		c-0.61-11.87-2.85-23.43-6.77-34.66c8.14-3.77,16.64-6.37,25.4-8.25c9.18-1.96,17.55-0.51,24.93,5.43
		c5.04,4.06,10.65,7.8,14.1,13.26c4.42,7.01,8.59,14.24,9.47,22.96c0.74,7.35,0.14,14.36-2.06,21.32c-1.18,3.73-3.35,6.69-6.33,9.25
		c-1.82,1.57-2.6,1.73-4.13-0.44c-5.72-8.08-12.94-14.4-22.56-17.47c-4.74-1.51-9.57-2.76-14.82-2.68c0.9-1.64,1.83-2.94,2.34-4.39
		c0.53-1.49,0.1-2.98-1.39-3.83c-1.58-0.9-3.14-0.16-3.86,1.1C383.63,181.26,378.21,182.82,372.85,184.55z"/>
	<path class="st2" d="M208.6,391.11c-3.46-3.76-4.85-8.69-7.13-13.09c-8.73-16.88-20.05-31.77-33.36-45.24
		c-0.4-0.41-0.62-1-0.93-1.51l-0.04,0.04c6.74,1.36,12.91,4.44,19.43,6.5c17.97,5.69,36.04,10.87,54.58,14.43
		c13.03,2.5,26.14,4.21,39.34,4.75c8.92,0.37,17.9-0.49,26.85-0.85c0.84-0.03,1.84-0.63,2.45,0.06c0.82,0.93-0.15,1.84-0.56,2.66
		c-4.86,9.76-9.76,19.5-14.66,29.25c-8.65-4.08-17.84-5.55-26.63-1.85c-4.9,2.07-7.69,1.2-11.78-1.33
		c-11.14-6.9-22.85-8.67-35.08-2.11C216.62,385.22,212.77,388.38,208.6,391.11z"/>
	<path class="st3" d="M208.6,391.11c4.18-2.73,8.03-5.89,12.48-8.28c12.22-6.56,23.94-4.79,35.08,2.11
		c4.09,2.53,6.88,3.4,11.78,1.33c8.79-3.7,17.98-2.24,26.63,1.85c-5.16,13.52-11.79,26.31-19.36,38.61
		c-4.05,6.57-8.44,12.89-14.4,17.92c-5.83,4.92-10.08,5.14-16.69,1.06c-5.86-3.63-10.04-8.93-13.91-14.43
		c-8.41-11.96-14.72-25.13-21.42-38.07C208.44,392.55,208.26,391.85,208.6,391.11z"/>
	<path class="st3" d="M303.44,347.62c9.45-10.39,19.62-19.62,34.33-21.65c3.92,6.9,2.94,10.52-3.77,14.27
		C324.5,345.54,314.06,346.92,303.44,347.62z"/>
	<path class="st3" d="M259.51,346.23c9.47-0.22,18.81,0.45,28.21,2.08c3.62,0.63,8.13-0.22,12.2-0.75
		c-7.88,1.17-15.82,0.92-23.72,0.53C270.62,347.81,264.96,347.79,259.51,346.23z"/>
	<path class="st2" d="M167.18,331.28c-0.52-0.24-1.04-0.49-1.56-0.73c0.05-0.1,0.1-0.19,0.15-0.29c0.45,0.35,0.91,0.71,1.37,1.06
		C167.14,331.32,167.18,331.28,167.18,331.28z"/>
	<path class="st3" d="M287.7,193.71c-13.35,10.58-19.12,24.99-20.97,41.4c-0.08,0.71,0.13,1.49-0.57,2.03
		c-1.16-0.9-2.37-1.75-3.48-2.71c-7.96-6.92-13.29-15.31-14.28-26.04c-0.45-4.87-0.36-4.88-5.11-4.63
		c-1.26-9.64-4.75-18.43-9.95-26.6c0.74-0.78,1.51-1.54,2.22-2.36c1.22-1.4,1.37-2.88-0.06-4.2c-1.41-1.3-2.85-1.08-4.2,0.22
		c-0.7,0.67-1.46,1.28-2.19,1.91c-6.2-5.48-13.17-9.5-21.34-11.23c-0.24-1.44,0.03-2.93-0.68-4.32c-1.32-2.58-0.74-5.19,0.76-7.33
		c4.97-7.1,10.81-13.37,18.81-17.12c5.63-2.64,11.75-1.99,17.74-2.03c2.98,8.54,3.94,17.42,4.14,26.36
		c0.24,11.12,0.44,22.28-3.63,33.71c2.57-1.72,3.34-3.75,4.15-5.66c6.52-15.37,7.86-31.48,6.63-47.93
		c-0.09-1.17-1.36-2.15-0.49-3.44c10.23,4.91,16.94,12.48,18.18,24.16c0.04,0.36-0.02,0.88,0.19,1.06
		c4.46,3.84,2.58,9.74,4.68,14.36c0.9,1.98,1.32,4.17,1.96,6.27c-1.35,5.94-2.69,11.87-4.04,17.81c0.23,0.08,0.45,0.17,0.68,0.25
		c1.82-3.89,3.65-7.78,5.47-11.67C284.88,188.01,286.28,190.87,287.7,193.71z"/>
	<path class="st2" d="M244.41,130.69c-5.99,0.04-12.11-0.61-17.74,2.03c-8,3.75-13.84,10.02-18.81,17.12
		c-1.5,2.14-2.08,4.75-0.76,7.33c0.71,1.39,0.43,2.89,0.68,4.32c-9.51-2.24-18.91-1.63-28.22,1.1c-0.94,0.28-1.83,0.72-2.84,0.48
		c1.8-4.35,5.93-5.72,9.76-7.1c3.76-1.35,7.65-2.74,11.81-2.45c1.51,0.11,2.16-0.7,2.68-1.97c5.61-13.94,15.84-22.59,30.29-26.39
		c0.34-0.09,0.64-0.33,1.25-0.65c-3.66-2.98-8.07-2.99-12.11-3.31c-9.77-0.76-19.37,0.64-28.41,4.55c-3.79,1.64-7.55,3.73-7.94,8.79
		c-0.17,2.14-2.08,2.58-3.86,2.66c-2.58,0.12-5.16,0.07-7.74,0.09c7.26-8.08,15.27-15.21,25.22-19.87c0.84-0.13,1.69-0.22,2.51-0.4
		c9.86-2.14,19.71-2.54,29.64-0.35c3.73,0.82,6.67,3.33,10.25,4.39C242.72,123.74,243.35,127.31,244.41,130.69z"/>
	<path class="st3" d="M269.73,264.2c-13.01,0.56-24.26-3.31-33.14-13.14c-0.57-0.63-0.95-1.41-1.85-1.65
		c5.21-9.91,8.63-20.35,9.21-31.61c4.57,11.14,11.59,20.22,22.09,26.4C266.07,251.08,267.18,257.77,269.73,264.2z"/>
	<path class="st2" d="M266.05,244.19c-10.5-6.18-17.52-15.26-22.09-26.4c-0.33-4.68,0.35-9.4-0.67-14.04
		c4.75-0.25,4.67-0.24,5.11,4.63c0.99,10.73,6.32,19.12,14.28,26.04c1.11,0.96,2.32,1.81,3.48,2.71
		C266.12,239.48,266.09,241.84,266.05,244.19z"/>
	<path class="st2" d="M229.11,172.73c0.73-0.64,1.49-1.24,2.19-1.91c1.35-1.3,2.79-1.52,4.2-0.22c1.43,1.31,1.28,2.79,0.06,4.2
		c-0.71,0.81-1.47,1.57-2.22,2.36C231.93,175.68,230.52,174.2,229.11,172.73z"/>
	<path class="st3" d="M367.72,185.28c-3.67,1.37-7.18,1.06-10.42-1.16c-1.6-1.09-3.07-1.37-4.67-0.09c-1.6,1.28-0.8,2.66-0.12,3.93
		c1,1.86,0.8,3.76,0.47,5.69c-16.17-10.56-33.49-12.55-51.8-6.9c-2.67,0.82-5.21,2.06-7.8,3.1c-2.91-3.65-6.18-7.11-6.9-12.02
		c7.48-15.15,15.62-29.88,27.89-41.82c4.67-4.55,9.87-8.35,16.51-9.58c0.54,0.24,1.07,0.51,1.63,0.7
		c7.03,2.34,12.94,6.32,16.59,12.84c1.65,2.95,3.45,4.52,6.81,4.02c3.29,4.69,4.6,10.18,6.18,15.54
		C364.56,167.98,366.65,176.52,367.72,185.28z"/>
	<path class="st3" d="M283.5,169.67c-3.01-13.33-1.32-25.75,7.84-36.33c4.69-5.42,11.17-7.62,18.31-7.77
		C297.26,138.09,289.58,153.4,283.5,169.67z"/>
	<path class="st2" d="M355.9,143.99c-3.37,0.5-5.16-1.07-6.81-4.02c-3.65-6.52-9.55-10.5-16.59-12.84c-0.56-0.19-1.09-0.46-1.63-0.7
		C342.62,123.7,351.91,132.79,355.9,143.99z"/>
	<path class="st2" d="M286.47,177.83c0.72,4.91,3.99,8.36,6.9,12.02c-1.89,1.29-3.78,2.57-5.67,3.86c-1.42-2.84-2.82-5.7-5.39-7.74
		C283.7,183.26,285.08,180.54,286.47,177.83z"/>
	<path class="st2" d="M372.41,174.21c1.16,3.24,0.61,6.54,0.29,9.83C371.98,180.78,372.49,177.49,372.41,174.21z"/>
	<path class="st3" d="M240.06,121.08c-3.58-1.07-6.52-3.57-10.25-4.39c-9.93-2.19-19.78-1.79-29.64,0.35
		c-0.83,0.18-1.67,0.27-2.51,0.4c9.61-5.76,19.76-9.11,31.05-6.35C234.11,112.4,238.01,115.78,240.06,121.08z"/>
	<path class="st3" d="M358.81,198.62c0.06-0.73,0.14-1.46,0.18-2.19c0.2-4.78,0.2-4.78,5.41-4.26c-1.62,2.48-3.19,4.87-4.76,7.27
		C359.36,199.16,359.09,198.89,358.81,198.62z"/>
	<path class="st3" d="M322.78,298.05c0.36-0.64,0.59-0.5,0.72,0.13C323.26,298.13,323.02,298.09,322.78,298.05z"/>
	<path class="st4" d="M540.5,126.17c-0.18,4.88-1.45,8.56-4.83,11.31c-2.56,2.09-5.32,2.45-8.04,0.53
		c-2.78-1.96-2.66-4.82-1.55-7.57c2.05-5.11,6.15-7.99,11.18-9.79c1.32-0.47,1.86,0.23,2.16,1.22
		C539.92,123.49,540.65,125.08,540.5,126.17z"/>
	<path class="st1" d="M199.91,210.86c0.39-9.2,2.79-17.6,9.8-24.12c7.17-6.66,15.98-4.79,19.88,4.19
		c4.54,10.45,1.47,26.47-6.63,34.6c-7.99,8.02-18.21,5.58-21.73-5.23C200.24,217.26,199.83,214.1,199.91,210.86z M205.48,204.03
		c-0.09,2.7,0.17,5.47,3.06,6.44c3.25,1.1,5.38-1.16,6.94-3.6c2.12-3.32,2.84-7.04,1.74-10.89c-0.94-3.27-3.82-4.33-6.63-2.4
		C206.97,196.07,205.63,199.79,205.48,204.03z"/>
</g>
<g>
	<g>
		<defs>
			<rect id="SVGID_1_" x="274.88" y="301.81" width="417.75" height="414.53"/>
		</defs>
		<clipPath id="SVGID_2_">
			<use xlink:href="#SVGID_1_"  style="overflow:visible;"/>
		</clipPath>
		<g class="st5">
			<defs>
				<rect id="SVGID_3_" x="274.88" y="301.81" width="417.75" height="414.53"/>
			</defs>
			<clipPath id="SVGID_4_">
				<use xlink:href="#SVGID_3_"  style="overflow:visible;"/>
			</clipPath>
			<path class="st6" d="M280.34,596.04c6.44-8.39,41.78-30.19,55.93-34.68c0.38-3.88-2.16-7.66-0.98-11.59
				c1.15-3.85,3.76-7,5.51-10.54c2.89-5.85,4.02-12.73,8.2-17.76c5.4-6.49,7.51-14.53,12.93-22.28
				c-25.41-6.13-49.86-12.03-74.68-18.02c-0.44-5.21-1.01-10.29,2.44-15.31c2.98-4.34,2.94-9.63,2.25-14.89
				c-0.68-5.14-1.42-9.77-5.8-13.6c-4.78-4.18-3.51-8.36,1.82-11.42c10.08-5.79,20.41-11.63,28.38-20.08
				c12.42-13.15,27.39-23.23,40.44-35.57c14.11-13.34,30.57-23.73,45.32-36.26c4.77-4.05,9.33-8.34,14.12-12.37
				c3.48-2.93,6.86-5.99,10.97-8.1c2.8-1.44,5.3-3.18,6.45-6.46c1.31-3.74,4.58-4.6,7.66-3.04c3.76,1.9,8.24,2.18,11.43,5.15
				c0.72,0.67,1.42,0.96,2.19,0.92c7.91-0.49,15.31,1.9,22.94,3.36c4.73,0.91,9.52,1.05,13.93,3.36c0.93,0.49,2.31,0.53,3.37,0.28
				c5.53-1.31,10.3,0.99,15.16,2.95c0.52,0.21,1.13,0.57,1.6,0.46c5.01-1.23,9.56,1.69,14.37,1.62c9.35-0.15,18.37,2.63,27.56,3.08
				c10.31,0.5,20.05,3.88,30.34,4.51c7.52,0.46,14.78,3.63,22.42,4.58c3.1,0.39,5.63,3.04,7.29,5.62
				c8.94,13.98,12.51,29.07,8.03,45.4c-0.69,2.5-0.85,5.01-1.47,7.46c-0.84,3.3,0.63,6.09,3.08,7.34c5.04,2.58,6.49,7.66,9.24,11.76
				c3.72,5.54,5.66,11.78,4.68,18.63c-0.08,0.56-0.08,1.16,0.03,1.71c3.13,15.58-2.43,29.14-9.77,42.3
				c-0.54,0.96-0.96,1.99-1.43,2.97c15.23,4.8,30.92,5.88,46.17,9.2c7.38,1.6,7.27,1.71,7.63,9.4c0.12,2.54,0.17,5.4,1.33,7.52
				c7.73,14.05,6.7,29.14,5.74,44.26c-0.05,0.85-0.4,1.74-0.25,2.54c2.69,13.86-7.34,20.61-16.06,27.57
				c-4.18,3.34-8.64,6.52-12.48,10.15c-14.49,13.74-30.38,25.71-46.48,37.41c-5.57,4.05-10.74,8.47-15.83,13.03
				c-10.38,9.3-22.4,16.76-31.14,27.9c-0.52,0.66-1.16,1.3-1.89,1.72c-17.89,10.27-32.1,25.55-49.55,36.42
				c-2.42,1.51-4.75,3.14-7.16,4.66c-0.96,0.61-2.08,0.97-3.02,1.6c-2.62,1.76-4.55-3.84-6.62-0.97c-1.75,2.41-3.83,3.05-6.31,3.74
				c-1.7,0.48-3.48,1.22-4.86-0.09c-6.57-6.21-15.18-5.75-23.17-7.32c-1.4-0.27-2.81-0.49-4.2-0.83
				c-32.32-7.96-64.81-15.3-96.88-24.17c-18.65-5.16-37.73-8.55-56.14-14.62c-5.54-1.83-11.29-2.92-17.48-2.65
				c-7.8,0.33-13.69-6.45-9.73-14.29C286.72,632.24,284.99,614.4,280.34,596.04 M603.44,341.86c-7.48-1.12-13.15-3.73-19.44-4.45
				c-10.07-1.14-19.98-3.66-30.05-4.73c-9.34-0.99-18.15-4.67-27.54-4.96c-6.85-0.22-13.6-1.09-20.22-2.58
				c-4.29-0.97-8.53-1.98-12.89-2.68c-8.78-1.41-17.68-2.52-26.34-4.06c-8.19-1.46-16.83-1.2-24.76-4.41
				c-1.47-0.6-3.28-0.29-4.82,0.91c-7.59,5.91-15.63,11.3-22.8,17.66c-13.83,12.27-28.18,23.81-43.52,34.13
				c-0.93,0.62-1.98,1.21-2.63,2.07c-5.19,6.84-12.26,11.63-18.7,17.08c-6.86,5.82-14.49,10.77-20.6,17.41
				c-7.47,8.12-15.25,15.7-25.09,21.03c-1.78,0.97-4.97,2-4.78,5.31c6.67,2.47,13.64,3.53,20.38,5.36
				c9.75,2.65,19.18,6.67,29.04,8.67c12.7,2.58,24.84,7.07,37.61,9.46c12.07,2.26,23.83,6.26,35.65,9.73
				c8.15,2.39,16.91,1.48,24.87,5.02c2.63,1.17,4.81-0.69,6.61-2.76c1.23-1.42,1.71-3.62,4.24-3.83c6.06-0.5,10.23-4.73,14.02-8.59
				c5.4-5.5,11.26-10.38,17.86-14c4.32-2.37,8.19-5.19,11.58-8.43c7.36-7.04,14.88-13.95,23-20.01c6.56-4.89,11.61-11.4,18.93-15.54
				c9.6-5.43,18.26-12.34,25.77-20.64c4.38-4.84,9.3-9.21,14.74-12.92C590.87,356.15,596.64,349.62,603.44,341.86 M370.05,500.45
				c-0.98,1.19-1.87,1.96-2.36,2.93c-2.68,5.26-4.64,11-8.01,15.75c-5.26,7.41-9.6,15.06-12.09,23.84c-0.63,2.23-3.52,3.8-1.9,7.04
				c8.17,1.21,16.46,2.92,24.83,3.55c10.15,0.76,19.85,4.13,30.15,4.27c5.76,0.08,11.5,2.71,17.39,2.64
				c5.81-0.07,10.79,5.07,16.88,2.36c9.09,2.48,18.62,0.37,27.78,2.81c2.89,0.77,5.81,1.79,9.03,1.92
				c12.68,0.52,25.11,3.43,37.7,4.77c10.26,1.09,12.96,0.63,17.51-9.19c2.48-5.35,4.66-11.24,8.09-15.66
				c5.44-7,8.99-14.65,12.55-22.51c3.22-7.1,6.73-14.08,10.47-20.92c1.26-2.3,3.95-3.44,5.15-6.29
				c4.25-10.12,8.34-20.36,14.73-29.45c1.59-2.25,2.49-5.03,3.5-7.65c3.36-8.69,8.68-16.36,12.89-24.61
				c3.19-6.25,7.18-12.09,10.59-18.24c0.93-1.67,1.18-3.79,0.24-5.8c-10.61,7.51-20.76,15.44-30.61,23.93
				c-16.02,13.83-32.69,27-49.79,39.47c-17.5,12.77-34.46,26.31-52.76,37.99c-2.99,1.91-6.2,3.75-8.11,7.33
				c-1.26,2.36-4.03,3.96-7.18,3.76c-2.46-0.68-1.22-3.78-1.76-4.03C425.69,513.58,397.88,507.02,370.05,500.45 M501.04,700.34
				c3.84,1.59,6.14-0.32,8.32-1.96c6.64-5.01,14-8.96,20.24-14.61c5.96-5.39,12.31-10.42,18.93-14.97
				c5.38-3.7,11.28-6.54,14.98-12.33c3.07-4.79,8.21-7.37,12.55-10.82c12.02-9.56,23.44-19.78,35.99-28.78
				c8.15-5.84,16.82-11.52,23.6-19.18c1.72-1.94,3.69-3.82,5.7-4.78c4.68-2.23,7.87-5.98,11.48-9.31
				c5.21-4.8,9.84-10.07,15.99-13.98c4.88-3.11,9.12-7.68,9.07-14.57c-0.02-2.45,1.28-4.88,1.77-7.36c1.8-8.99,2.53-18.2-0.52-26.87
				c-2.12-6.02-5.09-11.73-5.6-18.08c-3.64-0.82-6.95-1.44-8.95,1.82c-4.93,8.01-12.57,12.89-19.64,18.69
				c-9.25,7.59-19.09,14.66-26.92,23.95c-3.08,3.65-7.11,6.49-10.39,9.98c-7.33,7.81-17.33,12.19-24.83,19.75
				c-6.47,6.52-13.33,12.61-20.7,18.13c-1.33,1-2.79,2.58-3.24,3.69c-3.35,8.28-9.59,14.88-12.78,23.52
				c-3.92,0-7.65,0.31-11.29-0.08c-4.57-0.49-8.28,0.87-11.04,4.32c-4.92,6.15-10.93,11.02-17.42,15.3
				c-4.84,3.19-8.41,7.14-9.92,12.81C502.92,664.34,505.39,687.58,501.04,700.34 M285.08,653.97c2.69,1.5,5.78,1.83,8.81,2.42
				c4.74,0.92,9.62,1.49,14.14,3.07c18.55,6.46,37.86,10.07,56.81,14.92c30.24,7.74,60.54,15.32,90.82,22.91
				c4.12,1.03,8.39,1.48,12.55,2.37c5.54,1.19,11.35,1.38,16.5,4.05c3.65,1.89,5.86,0.33,7.79-2.66c1.56-2.43,2.92-5,3.3-7.82
				c1.8-13.29,1.46-26.11-9.15-36.29c-1.43-1.37-1.28-3.87-3.46-4.44c-64.76-16.45-128.42-37.22-194.41-51.69
				c1.21,4.92,2.14,8.68,3.01,12.2c10.81,4.34,22.31,4.29,33.02,7.46c-0.39,1.28-0.45,1.78-0.56,1.79
				c-10.72,1.09-20.79-3.76-31.8-3.73c-0.23,4.11-0.44,7.96-0.66,11.91c9.77,2.53,19.21,4.22,28.96,3.73
				c4.11-0.21,7.94,0.59,10.73,4.23c-13.23-1.62-26.77,1.26-39.42-4.34c-1.9,3.08-2.25,5.68-1.78,8.37
				c33.29,7.25,48.78,11.87,52.54,16.12c-19.25-2.16-36.59-10.01-55.21-12.32C286.96,649.08,285,651.05,285.08,653.97
				 M465.17,509.09c11.97-7.15,21.86-15.13,32.22-22.44c10.41-7.34,20.25-15.41,30.42-23.04c15.59-11.69,31.21-23.25,45.84-36.17
				c6.26-5.53,12.34-11.48,20.05-15.24c6.42-3.13,9.81-10.13,16.36-13.15c1.89-6.89,4.39-13.68,5.51-20.69
				c1.52-9.43-1.82-18.42-4.3-27.39c-0.34-1.24-0.79-2.83-3.48-2.72c-4.02,2.05-6.5,6.68-10.07,10.09
				c-7.76,7.4-17.13,12.88-24.38,20.87c-3.8,4.18-8.08,7.82-12.61,11.31c-11.12,8.55-22.98,16.13-33.4,25.64
				c-3.34,3.05-7.11,5.71-10.18,9.05c-7.15,7.77-15.66,13.76-24.32,19.63c-4.89,3.31-9.92,6.59-14.15,10.65
				c-7.16,6.86-14.6,13.22-23.79,18.12C461.66,484.31,464.59,495.88,465.17,509.09 M341.9,591.14c0.89,1.82,2.1,1.64,3.17,1.87
				c8.08,1.72,16.38,1.67,24.49,3.39c8.34,1.77,16.82,3.46,25.31,3.88c19.39,0.97,38.14,6.33,57.42,7.77
				c9.93,0.75,19.67,2.86,29.5,4.23c11.82,1.64,23.79,1.81,35.51,4.39c10.39,2.29,14.28-4.19,14.26-12.75
				c-0.01-4.65-1.88-8.87-2.9-13.29c-1.72-7.45-5.34-10.45-12.9-11.05c-7.36-0.59-14.89-0.51-22.02-2.14
				c-11.72-2.68-23.68-3.05-35.45-4.97c-14.33-2.34-28.98-1.89-43.21-5.09c-13.89-3.13-28.11-4.11-42.13-6.44
				c-8.22-1.37-16.8-2.87-26.12-1.37c0.93,3.47,1.76,6.53,2.45,9.12c15.53-0.84,30.1,1.25,45.8,3.16c-3.97,4.45-7.8,4.37-11.6,2.92
				c-9.06-3.46-18.64-1.51-27.89-2.89c-2.04-0.3-4.54,0.19-6.25,1.97c0,1.7-0.54,3.38,0.59,5.56c8.8-0.41,17.69,1.6,26.74,2.23
				c3,0.21,6.86-0.14,8.47,5.55c-12.85-3.62-25.26-3.04-37.49-5.08C345.31,585.26,343.05,588.07,341.9,591.14 M618.45,406.32
				c-1.69,3.4-3.09,6.43-4.68,9.35c-6.61,12.13-12.92,24.44-20.06,36.24c-4.28,7.07-6.12,15.34-10.98,21.9
				c-5.16,6.98-7.7,15.06-11.42,22.64c-1.37,2.79-2.16,5.98-3.99,8.4c-4.81,6.38-8.34,13.44-11.86,20.54
				c-5.64,11.38-10.98,22.9-18.31,33.38c-2.57,3.67-4.21,7.99-6.24,12.02c-1.53,3.04-1.35,5.9,0.52,8.86
				c4.92,7.77,6.87,16.44,7.38,25.53c0.12,2.16-0.99,4.52,0.72,6.44c1.71,0.49,2.73-0.45,3.81-1.44c4.92-4.48,7.83-10.3,10.93-16.01
				c6.26-11.52,12.56-23.02,18.85-34.52c5.25-9.59,10.87-18.96,15.73-28.78c9.74-19.69,18.98-39.69,30.71-58.3
				c6.82-10.82,11.66-21.87,10.32-34.95c-0.2-1.98-0.51-4.04-0.22-5.98C631.22,420.97,625.51,413.64,618.45,406.32 M293.1,474.73
				c17.17,4.2,33.36,8.24,49.59,12.1c10.2,2.42,20.5,4.43,30.7,6.85c9.65,2.28,19.11,5.53,28.86,7.13
				c13.21,2.18,25.71,7.03,38.87,9.33c5.16,0.9,10.14,3.01,16.36,2.27c-1.29-8.36-0.82-16.16-3.37-23.9
				c-2.79-8.48-8.11-13.3-16.54-15.19c-8.32-1.86-16.87-3.05-24.93-5.7c-21.9-7.2-44.6-11.35-66.6-18.15
				c-8.91-2.75-18.12-4.56-27.01-7.39c-3.6-1.15-7.23-1.48-10.84-2.12c-3.41-0.61-6.61-3.06-10.71-1.8
				C300.61,450.9,302.49,463.18,293.1,474.73 M292.45,593.94c5.11,0.96,8.26,2.25,11.46,3.07c5.39,1.38,10.72,3.75,16.09,4.18
				c7.18,0.58,13.79,3.19,20.56,4.79c8.62,2.03,16.72,6.32,25.92,6.3c0.78,0,1.65,0.38,2.33,0.82c4.98,3.2,10.96,3.4,16.36,5.44
				c6.21,2.36,13.03,3.09,19.28,5.36c3.84,1.4,8.32,0.51,11.47,2.52c9.31,5.92,20.24,6.04,30.24,9.36
				c10.35,3.43,21.18,5.42,31.5,8.94c6.69,2.28,12.59,1.42,17.5-2.68c4.08-3.41,8.61-6.16,12.64-9.6c3.18-2.72,6.41-5.28,7.88-9.94
				c-6.45-0.29-13.25,0.8-19.01-1.16c-11.18-3.8-23.36-0.27-34.15-5.63c-1.4-0.69-3.38-0.26-5.09-0.28
				c-11.79-0.11-23.1-4.67-34.99-3.8c-0.26,0.02-0.56-0.11-0.8-0.25c-6.53-3.79-13.76-2.81-20.81-3.06
				c-2.27-0.08-4.8,0.42-6.76-0.41c-10.34-4.39-21.61-3.35-32.34-5.7c-8.44-1.85-16.83-4.34-25.46-5.47
				c-1.14-0.15-2.22-0.44-3.1-1.98c0.43-4.54,3.04-8.93,5.68-12.52c3.55-4.83,3.01-9.36,2.53-14.71c-1.45,0-2.73-0.39-3.59,0.06
				C322.86,575.34,308.34,583.77,292.45,593.94 M622.79,484.81c-7.83,17.56-19.79,31.2-26.83,47.42
				c-6.92,15.96-18.33,29.3-26.19,45.56c2.08-0.26,3.29-0.04,3.7-0.51c5.59-6.56,12.05-11.98,19.19-16.88
				c8.57-5.88,15.9-13.37,23.09-20.9c4.89-5.12,9.88-10.06,15.76-14.17c6.17-4.31,12.01-9.15,17.63-14.17
				c6.23-5.55,11.23-12.36,19.41-18.42C651.86,491.75,637.43,487.35,622.79,484.81"/>
			<path class="st7" d="M603.44,341.86c-6.8,7.76-12.57,14.29-19.88,19.27c-5.44,3.71-10.36,8.09-14.74,12.92
				c-7.51,8.3-16.17,15.21-25.77,20.64c-7.32,4.14-12.37,10.65-18.93,15.54c-8.12,6.06-15.64,12.96-23,20.01
				c-3.39,3.24-7.26,6.06-11.58,8.43c-6.6,3.62-12.46,8.5-17.86,14c-3.78,3.86-7.96,8.09-14.02,8.59c-2.52,0.21-3,2.4-4.24,3.83
				c-1.8,2.07-3.98,3.93-6.61,2.76c-7.95-3.54-16.72-2.62-24.87-5.02c-11.82-3.47-23.58-7.47-35.65-9.73
				c-12.76-2.39-24.91-6.88-37.61-9.46c-9.86-2-19.29-6.01-29.04-8.67c-6.75-1.84-13.71-2.89-20.38-5.36
				c-0.19-3.31,3-4.35,4.78-5.31c9.84-5.33,17.62-12.91,25.09-21.03c6.11-6.65,13.74-11.6,20.6-17.41
				c6.44-5.46,13.5-10.24,18.7-17.08c0.65-0.86,1.71-1.45,2.63-2.07c15.33-10.32,29.69-21.86,43.52-34.13
				c7.17-6.37,15.22-11.75,22.8-17.66c1.54-1.2,3.34-1.51,4.82-0.91c7.93,3.21,16.57,2.95,24.76,4.41
				c8.66,1.54,17.55,2.65,26.34,4.06c4.36,0.7,8.6,1.71,12.89,2.68c6.62,1.5,13.38,2.37,20.22,2.58c9.39,0.3,18.2,3.97,27.54,4.96
				c10.07,1.07,19.98,3.58,30.05,4.73C590.3,338.13,595.96,340.74,603.44,341.86"/>
			<path class="st7" d="M370.05,500.45c27.84,6.57,55.64,13.13,84.93,20.04c0.54,0.25-0.7,3.35,1.76,4.03
				c3.15,0.2,5.92-1.4,7.18-3.76c1.91-3.58,5.12-5.42,8.11-7.33c18.3-11.69,35.26-25.23,52.76-37.99
				c17.1-12.48,33.77-25.64,49.79-39.47c9.84-8.5,20-16.42,30.61-23.93c0.94,2.01,0.69,4.13-0.24,5.8
				c-3.41,6.15-7.41,11.98-10.59,18.23c-4.21,8.25-9.53,15.92-12.89,24.61c-1.01,2.62-1.91,5.39-3.5,7.65
				c-6.4,9.09-10.49,19.32-14.73,29.45c-1.2,2.86-3.89,3.99-5.15,6.29c-3.74,6.84-7.25,13.82-10.47,20.92
				c-3.57,7.86-7.12,15.51-12.55,22.51c-3.43,4.42-5.61,10.31-8.09,15.66c-4.56,9.82-7.26,10.28-17.51,9.19
				c-12.6-1.34-25.02-4.25-37.7-4.77c-3.22-0.13-6.14-1.15-9.03-1.92c-9.16-2.44-18.69-0.33-27.78-2.81
				c-6.09,2.7-11.07-2.43-16.88-2.36c-5.89,0.07-11.63-2.56-17.39-2.64c-10.3-0.14-19.99-3.5-30.15-4.27
				c-8.37-0.63-16.66-2.34-24.83-3.55c-1.63-3.24,1.26-4.81,1.9-7.04c2.49-8.78,6.83-16.43,12.09-23.84
				c3.37-4.75,5.33-10.49,8.01-15.75C368.18,502.41,369.07,501.64,370.05,500.45"/>
			<path class="st7" d="M501.04,700.34c4.35-12.76,1.89-36-4.63-45.71c1.51-5.66,5.09-9.61,9.92-12.81
				c6.49-4.28,12.5-9.16,17.42-15.3c2.76-3.46,6.47-4.82,11.04-4.32c3.65,0.39,7.37,0.08,11.29,0.08
				c3.19-8.63,9.43-15.24,12.78-23.52c0.45-1.11,1.91-2.7,3.24-3.69c7.37-5.51,14.23-11.6,20.7-18.13
				c7.5-7.57,17.51-11.95,24.83-19.75c3.28-3.5,7.31-6.33,10.39-9.98c7.84-9.29,17.67-16.36,26.92-23.95
				c7.07-5.8,14.71-10.68,19.64-18.69c2-3.25,5.31-2.64,8.95-1.82c0.51,6.35,3.49,12.07,5.61,18.08c3.05,8.67,2.32,17.87,0.52,26.87
				c-0.49,2.48-1.79,4.91-1.77,7.36c0.05,6.89-4.19,11.46-9.07,14.57c-6.15,3.92-10.78,9.19-15.99,13.98
				c-3.61,3.33-6.8,7.08-11.48,9.31c-2.01,0.96-3.98,2.84-5.7,4.78c-6.78,7.66-15.45,13.33-23.6,19.18
				c-12.54,9-23.97,19.22-35.99,28.78c-4.34,3.45-9.48,6.02-12.55,10.82c-3.71,5.8-9.6,8.63-14.98,12.33
				c-6.62,4.55-12.97,9.59-18.93,14.97c-6.24,5.64-13.6,9.6-20.24,14.61C507.18,700.02,504.87,701.93,501.04,700.34"/>
			<path class="st8" d="M285.08,653.97c-0.08-2.92,1.88-4.89,2.51-7.74c18.62,2.31,35.96,10.16,55.21,12.32
				c-3.76-4.25-19.25-8.87-52.54-16.12c-0.47-2.68-0.12-5.29,1.78-8.37c12.65,5.6,26.2,2.71,39.42,4.34
				c-2.79-3.65-6.62-4.44-10.73-4.23c-9.75,0.49-19.19-1.2-28.96-3.73c0.22-3.96,0.43-7.8,0.66-11.91c11-0.03,21.08,4.82,31.8,3.73
				c0.11-0.01,0.17-0.51,0.56-1.79c-10.72-3.18-22.21-3.12-33.02-7.46c-0.87-3.51-1.8-7.28-3.01-12.2
				c66,14.47,129.65,35.24,194.41,51.69c2.18,0.58,2.02,3.07,3.46,4.44c10.62,10.19,10.95,23,9.15,36.29
				c-0.38,2.82-1.74,5.39-3.3,7.82c-1.93,3-4.14,4.55-7.79,2.66c-5.15-2.67-10.96-2.86-16.5-4.05c-4.16-0.89-8.43-1.34-12.55-2.37
				c-30.29-7.59-60.58-15.17-90.82-22.91c-18.94-4.85-38.26-8.46-56.81-14.92c-4.52-1.58-9.41-2.14-14.14-3.07
				C290.86,655.79,287.77,655.47,285.08,653.97 M453.11,656.46c-5.73-1.91-10.58-3.28-15.23-5.13
				c-17.11-6.82-35.78-5.35-53.26-10.15c-0.49-0.13-1.11,0.11-1.65,0.27c-0.25,0.07-0.47,0.33-0.62,0.56
				c-0.14,0.22-0.17,0.51-0.25,0.76c-0.06,1.41,0.95,2.15,2,2.36c5.27,1.04,10.53,2.35,15.86,2.79c14.17,1.16,28.11,3.16,41.47,8.36
				C444.78,657.58,448.28,659.4,453.11,656.46 M374.97,667.73c3.95,4.49,7.31,5.43,11.01,6.07c9.22,1.6,18.32,3.78,27.43,5.92
				c6.67,1.57,13.38,3.66,20.58,2.52C415.23,676.24,396.17,671.59,374.97,667.73"/>
			<path class="st7" d="M465.17,509.09c-0.58-13.21-3.51-24.78-10.27-35.5c9.19-4.91,16.63-11.27,23.79-18.12
				c4.23-4.06,9.26-7.34,14.15-10.65c8.67-5.87,17.18-11.86,24.32-19.63c3.07-3.33,6.84-6,10.18-9.05
				c10.41-9.51,22.27-17.09,33.4-25.64c4.53-3.48,8.81-7.12,12.61-11.31c7.25-7.99,16.62-13.47,24.38-20.87
				c3.57-3.41,6.05-8.04,10.07-10.09c2.68-0.11,3.13,1.49,3.48,2.72c2.48,8.97,5.82,17.96,4.3,27.39
				c-1.13,7.01-3.63,13.8-5.51,20.69c-6.56,3.02-9.94,10.02-16.36,13.15c-7.71,3.76-13.79,9.71-20.05,15.24
				c-14.63,12.92-30.25,24.49-45.84,36.17c-10.17,7.63-20.01,15.69-30.42,23.04C487.03,493.96,477.14,501.95,465.17,509.09"/>
			<path class="st8" d="M341.9,591.14c1.14-3.06,3.41-5.88,5.75-9.02c12.23,2.05,24.64,1.47,37.49,5.08
				c-1.61-5.68-5.47-5.34-8.47-5.55c-9.04-0.63-17.94-2.65-26.74-2.23c-1.14-2.18-0.6-3.86-0.59-5.56c1.71-1.78,4.21-2.28,6.25-1.97
				c9.26,1.38,18.83-0.56,27.89,2.89c3.8,1.45,7.63,1.54,11.6-2.92c-15.69-1.9-30.26-3.99-45.8-3.16c-0.7-2.59-1.52-5.65-2.45-9.12
				c9.32-1.5,17.9,0,26.12,1.37c14.02,2.33,28.24,3.31,42.13,6.44c14.23,3.2,28.88,2.75,43.21,5.09
				c11.77,1.92,23.73,2.29,35.45,4.97c7.13,1.63,14.66,1.55,22.02,2.14c7.56,0.6,11.17,3.6,12.9,11.05
				c1.02,4.42,2.89,8.64,2.9,13.29c0.02,8.55-3.87,15.03-14.26,12.75c-11.72-2.58-23.69-2.75-35.51-4.39
				c-9.84-1.37-19.58-3.48-29.5-4.23c-19.29-1.45-38.03-6.8-57.42-7.77c-8.48-0.42-16.96-2.11-25.31-3.88
				c-8.11-1.72-16.41-1.67-24.49-3.39C344,592.78,342.79,592.96,341.9,591.14 M484.85,594.19c-7.88-2.89-14.94-5.12-22.6-4.72
				c-2.25,0.12-4.7,0.88-6.69-0.43c-4.95-3.25-10.88-2.61-16.19-4.39c-1.18-0.4-2.88-0.53-3.41,2.03c0.4,1.2,1.75,1.41,3.14,1.67
				c14.54,2.69,29.08,5.4,43.63,8.04C483.02,596.44,483.46,595.67,484.85,594.19"/>
			<path class="st7" d="M618.45,406.32c7.06,7.32,12.77,14.65,11.21,25.33c-0.28,1.94,0.02,3.99,0.23,5.98
				c1.35,13.08-3.49,24.12-10.32,34.95c-11.73,18.61-20.97,38.6-30.71,58.3c-4.86,9.82-10.48,19.19-15.73,28.78
				c-6.29,11.5-12.59,23-18.85,34.52c-3.1,5.71-6.02,11.54-10.93,16.01c-1.08,0.98-2.09,1.93-3.81,1.44
				c-1.7-1.92-0.6-4.28-0.72-6.44c-0.51-9.09-2.46-17.76-7.38-25.53c-1.87-2.96-2.05-5.82-0.52-8.86c2.03-4.04,3.67-8.36,6.24-12.02
				c7.33-10.48,12.67-22,18.31-33.38c3.52-7.1,7.05-14.15,11.86-20.54c1.83-2.42,2.62-5.61,3.99-8.4
				c3.72-7.58,6.26-15.66,11.42-22.64c4.85-6.56,6.7-14.83,10.98-21.9c7.15-11.8,13.45-24.12,20.06-36.24
				C615.37,412.75,616.76,409.72,618.45,406.32"/>
			<path class="st8" d="M293.1,474.73c9.39-11.56,7.52-23.83,4.38-36.58c4.09-1.26,7.3,1.19,10.71,1.8
				c3.61,0.65,7.24,0.98,10.84,2.12c8.88,2.83,18.09,4.64,27.01,7.39c22,6.8,44.7,10.95,66.6,18.15c8.06,2.65,16.61,3.84,24.93,5.7
				c8.43,1.89,13.75,6.71,16.54,15.19c2.55,7.74,2.08,15.54,3.37,23.9c-6.22,0.74-11.19-1.37-16.36-2.27
				c-13.15-2.3-25.65-7.15-38.87-9.33c-9.75-1.61-19.21-4.85-28.86-7.13c-10.2-2.42-20.5-4.43-30.7-6.85
				C326.45,482.98,310.27,478.93,293.1,474.73 M412.79,483.95c-2.01-5.16-5.34-5.96-8.43-5.88c-4.89,0.13-9.2-1.51-13.23-3.66
				c-5.99-3.19-12.31-3.16-18.69-2.98c-1.81,0.05-2.02,1.57-0.85,3.48c3.57-0.73,7.18-1.93,11.13-0.05
				C391.74,479.18,401.62,480.88,412.79,483.95 M331.32,456.69c-8.24-3.66-16.78-5.59-25.63-5.98c-1.35-0.06-1.33,1.51-0.75,3.07
				C313.58,454.92,322.13,458.04,331.32,456.69 M301.17,467.71c6.75-1,12.3-0.32,17.64,1.4c4.63,1.49,9.37,2.04,14.16,2.35
				c1.78,0.12,3.45-0.18,3.34-2.61C306.6,463.43,306.6,463.43,301.17,467.71"/>
			<path class="st7" d="M292.45,593.94c15.89-10.17,30.41-18.6,45.32-26.37c0.85-0.44,2.14-0.06,3.59-0.06
				c0.48,5.36,1.01,9.88-2.53,14.71c-2.64,3.59-5.24,7.98-5.68,12.52c0.88,1.54,1.96,1.83,3.1,1.98c8.63,1.14,17.02,3.62,25.46,5.47
				c10.73,2.35,22,1.31,32.34,5.7c1.96,0.83,4.49,0.33,6.76,0.41c7.05,0.25,14.28-0.72,20.81,3.06c0.24,0.14,0.54,0.27,0.8,0.25
				c11.9-0.87,23.2,3.7,34.99,3.8c1.71,0.02,3.69-0.42,5.09,0.28c10.79,5.36,22.97,1.83,34.15,5.63c5.77,1.96,12.57,0.87,19.01,1.16
				c-1.47,4.66-4.7,7.23-7.88,9.94c-4.03,3.44-8.56,6.19-12.64,9.6c-4.91,4.1-10.81,4.96-17.5,2.68
				c-10.32-3.52-21.15-5.51-31.5-8.94c-10.01-3.32-20.93-3.44-30.24-9.36c-3.16-2.01-7.63-1.12-11.47-2.52
				c-6.25-2.28-13.07-3.01-19.28-5.36c-5.39-2.05-11.38-2.24-16.36-5.45c-0.68-0.44-1.55-0.82-2.33-0.82
				c-9.2,0.03-17.3-4.26-25.92-6.3c-6.77-1.6-13.38-4.2-20.56-4.79c-5.37-0.44-10.7-2.8-16.09-4.18
				C300.71,596.19,297.56,594.9,292.45,593.94"/>
			<path class="st7" d="M622.79,484.81c14.64,2.53,29.07,6.93,45.76,7.94c-8.18,6.06-13.19,12.87-19.41,18.42
				c-5.62,5.01-11.46,9.86-17.63,14.17c-5.88,4.11-10.87,9.05-15.76,14.17c-7.19,7.53-14.52,15.02-23.09,20.9
				c-7.14,4.9-13.6,10.32-19.19,16.88c-0.4,0.47-1.61,0.25-3.7,0.51c7.86-16.27,19.27-29.61,26.19-45.56
				C603,516.01,614.96,502.37,622.79,484.81"/>
			<path class="st6" d="M453.11,656.46c-4.83,2.94-8.33,1.12-11.68-0.18c-13.35-5.19-27.3-7.19-41.47-8.36
				c-5.33-0.44-10.59-1.75-15.86-2.79c-1.06-0.21-2.06-0.96-2.01-2.36c0.08-0.26,0.11-0.54,0.25-0.76c0.15-0.23,0.38-0.49,0.62-0.56
				c0.54-0.16,1.16-0.4,1.65-0.27c17.48,4.8,36.15,3.33,53.26,10.15C442.54,653.18,447.38,654.54,453.11,656.46"/>
			<path class="st6" d="M374.97,667.73c21.19,3.86,40.26,8.51,59.02,14.51c-7.2,1.14-13.9-0.95-20.58-2.52
				c-9.11-2.14-18.21-4.32-27.43-5.92C382.28,673.15,378.92,672.21,374.97,667.73"/>
			<path class="st6" d="M484.85,594.19c-1.39,1.47-1.83,2.25-2.12,2.2c-14.55-2.64-29.09-5.35-43.63-8.04
				c-1.39-0.26-2.74-0.47-3.14-1.67c0.53-2.56,2.24-2.42,3.41-2.03c5.31,1.78,11.24,1.15,16.19,4.39c1.99,1.31,4.44,0.55,6.69,0.43
				C469.92,589.08,476.98,591.3,484.85,594.19"/>
			<path class="st6" d="M412.79,483.95c-11.17-3.07-21.05-4.76-30.08-9.08c-3.94-1.89-7.56-0.68-11.13,0.05
				c-1.18-1.91-0.96-3.43,0.85-3.48c6.38-0.19,12.7-0.22,18.69,2.98c4.03,2.15,8.34,3.78,13.23,3.66
				C407.45,477.99,410.79,478.78,412.79,483.95"/>
			<path class="st6" d="M331.32,456.69c-9.19,1.35-17.74-1.78-26.38-2.91c-0.59-1.56-0.61-3.13,0.75-3.07
				C314.53,451.1,323.07,453.04,331.32,456.69"/>
			<path class="st6" d="M301.17,467.71c5.43-4.28,5.43-4.28,35.14,1.13c0.12,2.44-1.56,2.73-3.34,2.62
				c-4.79-0.31-9.53-0.87-14.16-2.35C313.47,467.39,307.93,466.71,301.17,467.71"/>
		</g>
	</g>
</g>
</svg>
