<svg id="Capa_1" data-name="Capa 1" xmlns="http://www.w3.org/2000/svg" viewBox="0 0 716.17 715.86"><defs><style>.cls-1{fill:#120d0f;}.cls-2{fill:#ea680f;}.cls-3{fill:#ebeded;}</style></defs><path class="cls-1" d="M9.5,512.49c11.21-14.62,72.77-52.6,97.43-60.41.66-6.76-3.76-13.34-1.71-20.19s6.54-12.2,9.59-18.37c5-10.19,7-22.16,14.29-30.93,9.4-11.3,13.09-25.3,22.52-38.81L21.54,312.39c-.76-9.07-1.75-17.92,4.26-26.67,5.19-7.56,5.12-16.77,3.92-25.94-1.18-9-2.47-17-10.11-23.7-8.32-7.27-6.11-14.56,3.17-19.89,17.57-10.09,35.55-20.27,49.43-35,21.63-22.91,47.71-40.47,70.44-61.95C167.23,96,195.89,77.93,221.58,56.11c8.31-7.06,16.26-14.53,24.6-21.55,6.06-5.1,12-10.44,19.12-14.11,4.88-2.51,9.23-5.54,11.24-11.26,2.28-6.51,8-8,13.33-5.3,6.55,3.31,14.36,3.8,19.91,9a5,5,0,0,0,3.81,1.59c13.78-.84,26.68,3.31,40,5.85,8.24,1.58,16.58,1.83,24.26,5.86a9.14,9.14,0,0,0,5.86.49c9.63-2.28,17.94,1.71,26.41,5.13.91.37,2,1,2.79.8,8.74-2.15,16.66,2.94,25,2.81,16.3-.25,32,4.59,48,5.37,18,.87,34.93,6.76,52.86,7.84,13.1.8,25.74,6.33,39,8,5.41.67,9.81,5.29,12.69,9.79,15.58,24.34,21.8,50.63,14,79.07-1.2,4.36-1.48,8.73-2.57,13-1.46,5.76,1.09,10.61,5.36,12.79,8.78,4.5,11.3,13.35,16.09,20.5,6.47,9.65,9.87,20.51,8.16,32.45a9,9,0,0,0,.05,3c5.45,27.13-4.23,50.76-17,73.67-.94,1.68-1.68,3.47-2.5,5.18,26.54,8.35,53.87,10.24,80.43,16,12.86,2.8,12.67,3,13.29,16.37.21,4.42.3,9.4,2.32,13.09,13.46,24.48,11.67,50.77,10,77.1-.1,1.49-.71,3-.44,4.43,4.69,24.13-12.78,35.89-28,48-7.28,5.82-15.05,11.36-21.73,17.69-25.25,23.94-52.93,44.79-81,65.16a348.41,348.41,0,0,0-27.57,22.7c-18.08,16.2-39,29.2-54.24,48.59a12,12,0,0,1-3.29,3c-31.16,17.89-55.92,44.5-86.31,63.44-4.21,2.62-8.28,5.47-12.47,8.12-1.68,1.06-3.63,1.69-5.27,2.79-4.57,3.07-7.92-6.68-11.53-1.69-3,4.2-6.68,5.3-11,6.52-3,.83-6,2.13-8.47-.15-11.43-10.82-26.43-10-40.35-12.76-2.44-.48-4.9-.84-7.31-1.44-56.29-13.87-112.89-26.65-168.75-42.09-32.48-9-65.72-14.89-97.79-25.47a84.29,84.29,0,0,0-30.44-4.62c-13.58.57-23.85-11.23-16.95-24.89C20.62,575.55,17.61,544.48,9.5,512.49ZM572.3,69.75c-13-2-22.9-6.5-33.87-7.74-17.53-2-34.8-6.37-52.34-8.24-16.27-1.72-31.62-8.13-48-8.64a187,187,0,0,1-35.22-4.5C395.43,38.94,388,37.18,380.45,36c-15.3-2.46-30.79-4.39-45.88-7.08-14.26-2.54-29.31-2.09-43.12-7.68a8.53,8.53,0,0,0-8.39,1.59c-13.21,10.3-27.22,19.68-39.72,30.77C219.25,74.94,194.25,95,167.54,113c-1.62,1.09-3.45,2.11-4.59,3.61-9,11.92-21.35,20.25-32.56,29.76-11.95,10.13-25.24,18.75-35.89,30.33-13,14.14-26.56,27.34-43.7,36.63-3.1,1.68-8.65,3.48-8.32,9.25,11.62,4.3,23.75,6.14,35.5,9.34,17,4.62,33.41,11.61,50.59,15.1,22.11,4.49,43.27,12.31,65.5,16.47,21,3.94,41.51,10.91,62.1,17,14.2,4.17,29.46,2.58,43.31,8.74,4.59,2,8.38-1.2,11.51-4.81,2.15-2.48,3-6.31,7.38-6.67,10.55-.86,17.83-8.23,24.42-15,9.4-9.59,19.61-18.08,31.11-24.4a95.45,95.45,0,0,0,20.17-14.68c12.83-12.27,25.92-24.3,40.07-34.85,11.43-8.52,20.23-19.86,33-27.08A179.75,179.75,0,0,0,512,125.82a144.08,144.08,0,0,1,25.68-22.51C550.4,94.64,560.45,83.26,572.3,69.75ZM165.76,346c-1.7,2.07-3.26,3.41-4.12,5.11-4.66,9.15-8.08,19.16-13.95,27.43-9.16,12.91-16.72,26.24-21.06,41.53-1.11,3.89-6.14,6.63-3.3,12.27,14.23,2.11,28.67,5.09,43.24,6.19,17.69,1.32,34.58,7.18,52.52,7.43,10,.14,20,4.72,30.28,4.6s18.8,8.83,29.4,4.12c15.83,4.31,32.43.65,48.39,4.89,5,1.34,10.13,3.11,15.74,3.34,22.09.91,43.73,6,65.67,8.31,17.86,1.91,22.56,1.11,30.51-16,4.32-9.32,8.11-19.58,14.09-27.27,9.47-12.19,15.66-25.52,21.87-39.21,5.61-12.37,11.73-24.53,18.24-36.44,2.19-4,6.89-6,9-11,7.4-17.64,14.52-35.46,25.66-51.3,2.77-3.92,4.33-8.76,6.09-13.32,5.86-15.14,15.13-28.49,22.46-42.86C562,223,569,212.79,574.91,202.09a11,11,0,0,0,.42-10.1c-18.47,13.08-36.17,26.89-53.31,41.69-27.91,24.09-56.94,47-86.73,68.75-30.48,22.23-60,45.82-91.89,66.17-5.21,3.33-10.8,6.53-14.13,12.77a13.14,13.14,0,0,1-12.5,6.54c-4.28-1.18-2.13-6.58-3.07-7ZM393.92,694.17c6.68,2.76,10.71-.56,14.5-3.42,11.57-8.72,24.39-15.61,35.26-25.44a319.83,319.83,0,0,1,33-26.08c9.37-6.45,19.64-11.39,26.09-21.48,5.34-8.35,14.3-12.84,21.85-18.84,20.93-16.66,40.84-34.47,62.69-50.14,14.19-10.18,29.3-20.07,41.11-33.4,3-3.39,6.42-6.66,9.92-8.33,8.15-3.87,13.71-10.42,20-16.21,9.07-8.35,17.14-17.53,27.85-24.36,8.5-5.41,15.89-13.37,15.81-25.38,0-4.26,2.22-8.5,3.08-12.81,3.13-15.67,4.41-31.7-.91-46.8-3.69-10.48-8.87-20.43-9.76-31.5-6.34-1.42-12.1-2.5-15.59,3.17-8.59,14-21.9,22.45-34.22,32.56-16.11,13.21-33.24,25.54-46.89,41.71-5.37,6.36-12.38,11.3-18.1,17.39-12.76,13.6-30.18,21.23-43.26,34.41a325.9,325.9,0,0,1-36.05,31.57c-2.32,1.74-4.86,4.5-5.64,6.43-5.83,14.43-16.7,25.93-22.25,41-6.84,0-13.32.55-19.68-.14-8-.85-14.41,1.51-19.22,7.53-8.57,10.71-19.05,19.2-30.34,26.66-8.43,5.56-14.66,12.44-17.29,22.31C397.21,631.47,401.51,671.94,393.92,694.17ZM17.76,613.39c4.69,2.62,10.07,3.18,15.34,4.21,8.26,1.6,16.76,2.6,24.64,5.34,32.31,11.26,66,17.54,99,26q79,20.22,158.19,39.91c7.18,1.8,14.61,2.58,21.86,4.13,9.65,2.07,19.77,2.41,28.74,7,6.35,3.3,10.21.59,13.57-4.63,2.72-4.23,5.08-8.71,5.74-13.62,3.13-23.15,2.55-45.47-15.94-63.21-2.5-2.4-2.23-6.74-6-7.75C250,582.17,139.15,546,24.2,520.78c2.12,8.57,3.73,15.12,5.25,21.25,18.83,7.55,38.85,7.46,57.52,13-.69,2.22-.79,3.09-1,3.11-18.68,1.9-36.23-6.55-55.39-6.5-.4,7.17-.77,13.87-1.16,20.76,17,4.41,33.47,7.35,50.45,6.5,7.15-.36,13.82,1,18.68,7.37-23-2.83-46.63,2.19-68.67-7.55-3.31,5.36-3.92,9.9-3.11,14.57,58,12.63,85,20.67,91.52,28.08-33.54-3.76-63.74-17.43-96.18-21.46C21,604.88,17.62,608.31,17.76,613.39ZM331.45,361.05c20.85-12.45,38.07-26.36,56.12-39.1s35.27-26.84,53-40.12c27.15-20.36,54.36-40.5,79.84-63,10.9-9.63,21.5-20,34.93-26.55,11.18-5.45,17.08-17.64,28.5-22.9,3.29-12,7.64-23.83,9.61-36.05,2.63-16.42-3.18-32.08-7.5-47.7-.6-2.16-1.38-4.93-6.06-4.74-7,3.57-11.32,11.64-17.54,17.58-13.52,12.89-29.83,22.43-42.47,36.35a164.2,164.2,0,0,1-22,19.69c-19.37,14.89-40,28.1-58.17,44.66-5.81,5.3-12.38,9.94-17.73,15.75-12.45,13.53-27.27,24-42.37,34.19-8.51,5.76-17.27,11.48-24.65,18.54-12.46,11.95-25.43,23-41.43,31.57C325.33,317.88,330.45,338,331.45,361.05ZM116.74,504c1.54,3.17,3.65,2.86,5.52,3.25,14.07,3,28.53,2.92,42.65,5.91,14.53,3.09,29.3,6,44.08,6.77,33.78,1.69,66.43,11,100,13.54,17.29,1.3,34.25,5,51.38,7.36,20.59,2.86,41.44,3.16,61.86,7.65,18.09,4,24.86-7.3,24.83-22.2,0-8.1-3.27-15.45-5-23.14-3-13-9.3-18.2-22.47-19.25-12.81-1-25.93-.89-38.35-3.73-20.41-4.67-41.24-5.32-61.74-8.66-25-4.08-50.49-3.29-75.27-8.87-24.19-5.45-49-7.16-73.39-11.22-14.31-2.37-29.26-5-45.5-2.37,1.63,6,3.06,11.38,4.28,15.88,27.05-1.46,52.43,2.18,79.77,5.5-6.92,7.76-13.59,7.61-20.21,5.08-15.78-6-32.46-2.63-48.58-5a12.58,12.58,0,0,0-10.88,3.44c0,3-.95,5.89,1,9.68,15.33-.72,30.82,2.79,46.58,3.89,5.23.37,11.94-.24,14.75,9.66-22.38-6.3-44-5.28-65.3-8.85C122.68,493.71,118.73,498.62,116.74,504ZM598.44,182c-2.94,5.91-5.37,11.2-8.15,16.29-11.51,21.12-22.49,42.57-34.94,63.13-7.46,12.32-10.67,26.73-19.12,38.14-9,12.16-13.42,26.24-19.9,39.44-2.38,4.86-3.76,10.41-6.94,14.63-8.39,11.12-14.53,23.41-20.66,35.77-9.83,19.82-19.12,39.89-31.9,58.14-4.47,6.39-7.32,13.92-10.86,20.95-2.67,5.29-2.35,10.27.9,15.42,8.58,13.55,12,28.64,12.86,44.48.21,3.76-1.72,7.86,1.25,11.21,3,.87,4.75-.78,6.63-2.5,8.57-7.8,13.64-17.94,19.05-27.89Q503,479.15,519.5,449.12c9.14-16.7,18.93-33,27.39-50.13,17-34.3,33.07-69.13,53.5-101.55,11.89-18.85,20.32-38.09,18-60.87-.36-3.46-.89-7-.39-10.41C620.68,207.55,610.74,194.79,598.44,182ZM31.73,301.2c29.9,7.31,58.1,14.36,86.38,21.07,17.77,4.21,35.7,7.72,53.47,11.93,16.8,4,33.29,9.63,50.27,12.42,23,3.8,44.79,12.25,67.7,16.25,9,1.57,17.66,5.25,28.49,4-2.25-14.56-1.43-28.15-5.87-41.63C307.31,310.43,298,302,283.36,298.74c-14.5-3.24-29.38-5.31-43.43-9.92-38.14-12.54-77.68-19.77-116-31.61-15.52-4.8-31.56-7.95-47-12.88-6.27-2-12.59-2.58-18.88-3.7-5.94-1.07-11.52-5.34-18.65-3.14C44.81,259.69,48.08,281.07,31.73,301.2ZM30.6,508.83c8.9,1.67,14.39,3.92,19.95,5.35,9.39,2.41,18.67,6.52,28,7.28,12.51,1,24,5.55,35.81,8.34,15,3.54,29.12,11,45.15,11a8,8,0,0,1,4.06,1.42c8.68,5.58,19.1,5.92,28.49,9.48,10.82,4.11,22.7,5.38,33.59,9.35,6.69,2.44,14.49.89,20,4.38,16.22,10.31,35.25,10.52,52.68,16.3,18,6,36.9,9.45,54.87,15.58,11.65,4,21.92,2.47,30.47-4.67,7.12-6,15-10.73,22-16.72,5.54-4.73,11.17-9.21,13.73-17.32-11.23-.51-23.08,1.39-33.12-2-19.48-6.61-40.69-.47-59.49-9.8-2.43-1.21-5.88-.46-8.86-.49-20.54-.19-40.23-8.14-61-6.63a2.51,2.51,0,0,1-1.39-.44c-11.38-6.59-24-4.9-36.26-5.33-3.95-.13-8.37.74-11.78-.71-18-7.64-37.65-5.83-56.33-9.93-14.71-3.22-29.32-7.55-44.35-9.53a6.35,6.35,0,0,1-5.4-3.45c.75-7.91,5.29-15.55,9.88-21.81,6.18-8.41,5.25-16.29,4.42-25.63-2.53,0-4.77-.67-6.25.1C83.57,476.43,58.27,491.11,30.6,508.83ZM606,318.75c-13.64,30.59-34.47,54.34-46.73,82.6-12,27.8-31.93,51-45.62,79.37,3.63-.45,5.74-.07,6.44-.89,9.73-11.42,21-20.87,33.42-29.4,14.94-10.24,27.7-23.29,40.23-36.41,8.51-8.92,17.2-17.53,27.44-24.68a335.08,335.08,0,0,0,30.72-24.68c10.84-9.67,19.56-21.53,33.81-32.08C656.64,330.83,631.5,323.17,606,318.75Z" transform="translate(-3.07 -2.6)"/><path class="cls-2" d="M572.3,69.75c-11.85,13.51-21.9,24.89-34.62,33.56A144.08,144.08,0,0,0,512,125.82a179.75,179.75,0,0,1-44.88,35.94c-12.75,7.22-21.55,18.56-33,27.08-14.15,10.55-27.24,22.58-40.07,34.85a95.45,95.45,0,0,1-20.17,14.68c-11.5,6.32-21.71,14.81-31.11,24.4-6.59,6.72-13.87,14.09-24.42,15-4.4.36-5.23,4.19-7.38,6.67-3.13,3.61-6.92,6.85-11.51,4.81-13.85-6.16-29.11-4.57-43.31-8.74-20.59-6-41.07-13-62.1-17-22.23-4.16-43.39-12-65.5-16.47C111.39,243.54,95,236.55,78,231.93c-11.75-3.2-23.88-5-35.5-9.34-.33-5.77,5.22-7.57,8.32-9.25,17.14-9.29,30.69-22.49,43.7-36.63,10.65-11.58,23.94-20.2,35.89-30.33,11.21-9.51,23.52-17.84,32.56-29.76,1.14-1.5,3-2.52,4.59-3.61,26.71-18,51.71-38.07,75.8-59.45,12.5-11.09,26.51-20.47,39.72-30.77a8.53,8.53,0,0,1,8.39-1.59c13.81,5.59,28.86,5.14,43.12,7.68,15.09,2.69,30.58,4.62,45.88,7.08,7.59,1.22,15,3,22.45,4.67a187,187,0,0,0,35.22,4.5c16.35.51,31.7,6.92,48,8.64C503.63,55.64,520.9,60,538.43,62,549.4,63.25,559.27,67.8,572.3,69.75Z" transform="translate(-3.07 -2.6)"/><path class="cls-2" d="M165.76,346,313.7,380.9c.94.43-1.21,5.83,3.07,7a13.14,13.14,0,0,0,12.5-6.54c3.33-6.24,8.92-9.44,14.13-12.77,31.86-20.35,61.41-43.94,91.89-66.17,29.79-21.73,58.82-44.66,86.73-68.75,17.14-14.8,34.84-28.61,53.31-41.69a11,11,0,0,1-.42,10.1C569,212.79,562,223,556.46,233.85c-7.33,14.37-16.6,27.72-22.46,42.86-1.76,4.56-3.32,9.4-6.09,13.32-11.14,15.84-18.26,33.66-25.66,51.3-2.08,5-6.78,6.95-9,11-6.51,11.91-12.63,24.07-18.24,36.44-6.21,13.69-12.4,27-21.87,39.21-6,7.69-9.77,17.95-14.09,27.27-7.95,17.11-12.65,17.91-30.51,16-21.94-2.33-43.58-7.4-65.67-8.31-5.61-.23-10.7-2-15.74-3.34-16-4.24-32.56-.58-48.39-4.89-10.6,4.71-19.28-4.24-29.4-4.12s-20.26-4.46-30.28-4.6c-17.94-.25-34.83-6.11-52.52-7.43-14.57-1.1-29-4.08-43.24-6.19-2.84-5.64,2.19-8.38,3.3-12.27,4.34-15.29,11.9-28.62,21.06-41.53,5.87-8.27,9.29-18.28,13.95-27.43C162.5,349.4,164.06,348.06,165.76,346Z" transform="translate(-3.07 -2.6)"/><path class="cls-2" d="M393.92,694.17c7.59-22.23,3.29-62.7-8.06-79.62,2.63-9.87,8.86-16.75,17.29-22.31,11.29-7.46,21.77-16,30.34-26.66,4.81-6,11.26-8.38,19.22-7.53,6.36.69,12.84.14,19.68.14,5.55-15,16.42-26.54,22.25-41,.78-1.93,3.32-4.69,5.64-6.43a325.9,325.9,0,0,0,36.05-31.57c13.08-13.18,30.5-20.81,43.26-34.41,5.72-6.09,12.73-11,18.1-17.39,13.65-16.17,30.78-28.5,46.89-41.71,12.32-10.11,25.63-18.61,34.22-32.56,3.49-5.67,9.25-4.59,15.59-3.17.89,11.07,6.07,21,9.76,31.5,5.32,15.1,4,31.13.91,46.8-.86,4.31-3.11,8.55-3.08,12.81.08,12-7.31,20-15.81,25.38-10.71,6.83-18.78,16-27.85,24.36-6.29,5.79-11.85,12.34-20,16.21-3.5,1.67-6.93,4.94-9.92,8.33-11.81,13.33-26.92,23.22-41.11,33.4-21.85,15.67-41.76,33.48-62.69,50.14-7.55,6-16.51,10.49-21.85,18.84-6.45,10.09-16.72,15-26.09,21.48a319.83,319.83,0,0,0-33,26.08C432.81,675.14,420,682,408.42,690.75,404.63,693.61,400.6,696.93,393.92,694.17Z" transform="translate(-3.07 -2.6)"/><path class="cls-3" d="M17.76,613.39c-.14-5.08,3.28-8.51,4.37-13.48,32.44,4,62.64,17.7,96.18,21.46-6.56-7.41-33.53-15.45-91.52-28.08-.81-4.67-.2-9.21,3.11-14.57,22,9.74,45.63,4.72,68.67,7.55-4.86-6.35-11.53-7.73-18.68-7.37-17,.85-33.43-2.09-50.45-6.5.39-6.89.76-13.59,1.16-20.76,19.16,0,36.71,8.4,55.39,6.5.19,0,.29-.89,1-3.11-18.67-5.54-38.69-5.45-57.52-13-1.52-6.13-3.13-12.68-5.25-21.25,115,25.2,225.83,61.39,338.64,90,3.79,1,3.52,5.35,6,7.75,18.49,17.74,19.07,40.06,15.94,63.21-.66,4.91-3,9.39-5.74,13.62-3.36,5.22-7.22,7.93-13.57,4.63-9-4.64-19.09-5-28.74-7-7.25-1.55-14.68-2.33-21.86-4.13Q235.77,669,156.7,648.93c-33-8.45-66.65-14.73-99-26-7.88-2.74-16.38-3.74-24.64-5.34C27.83,616.57,22.45,616,17.76,613.39Zm292.69,4.34c-10-3.33-18.42-5.71-26.53-8.94-29.8-11.88-62.32-9.32-92.77-17.68a5.8,5.8,0,0,0-2.87.46,2.36,2.36,0,0,0-1.09,1,4.76,4.76,0,0,0-.43,1.32,4,4,0,0,0,3.49,4.12c9.17,1.82,18.34,4.1,27.62,4.86,24.69,2,49,5.51,72.23,14.56C295.94,619.68,302,622.86,310.45,617.73ZM174.34,637.36c6.88,7.82,12.73,9.45,19.19,10.57,16.06,2.79,31.91,6.58,47.78,10.31,11.63,2.74,23.31,6.37,35.84,4.38A808.78,808.78,0,0,0,174.34,637.36Z" transform="translate(-3.07 -2.6)"/><path class="cls-2" d="M331.45,361.05c-1-23-6.12-43.17-17.89-61.84,16-8.54,29-19.62,41.43-31.57,7.38-7.06,16.14-12.78,24.65-18.54,15.1-10.22,29.92-20.66,42.37-34.19,5.35-5.81,11.92-10.45,17.73-15.75,18.14-16.56,38.8-29.77,58.17-44.66a164.2,164.2,0,0,0,22-19.69c12.64-13.92,29-23.46,42.47-36.35,6.22-5.94,10.54-14,17.54-17.58,4.68-.19,5.46,2.58,6.06,4.74,4.32,15.62,10.13,31.28,7.5,47.7-2,12.22-6.32,24.05-9.61,36.05-11.42,5.26-17.32,17.45-28.5,22.9-13.43,6.55-24,16.92-34.93,26.55-25.48,22.51-52.69,42.65-79.84,63-17.72,13.28-34.86,27.33-53,40.12S352.3,348.6,331.45,361.05Z" transform="translate(-3.07 -2.6)"/><path class="cls-3" d="M116.74,504c2-5.34,5.94-10.25,10-15.72,21.3,3.57,42.92,2.55,65.3,8.85-2.81-9.9-9.52-9.29-14.75-9.66-15.76-1.1-31.25-4.61-46.58-3.89-2-3.79-1-6.71-1-9.68a12.58,12.58,0,0,1,10.88-3.44c16.12,2.41,32.8-1,48.58,5,6.62,2.53,13.29,2.68,20.21-5.08-27.34-3.32-52.72-7-79.77-5.5-1.22-4.5-2.65-9.84-4.28-15.88,16.24-2.62,31.19,0,45.5,2.37,24.42,4.06,49.2,5.77,73.39,11.22,24.78,5.58,50.31,4.79,75.27,8.87,20.5,3.34,41.33,4,61.74,8.66,12.42,2.84,25.54,2.7,38.35,3.73,13.17,1,19.46,6.27,22.47,19.25,1.78,7.69,5,15,5,23.14,0,14.9-6.74,26.19-24.83,22.2-20.42-4.49-41.27-4.79-61.86-7.65-17.13-2.38-34.09-6.06-51.38-7.36-33.6-2.52-66.25-11.85-100-13.54-14.78-.74-29.55-3.68-44.08-6.77-14.12-3-28.58-2.91-42.65-5.91C120.39,506.82,118.28,507.13,116.74,504Zm249,5.31c-13.72-5-26-8.91-39.37-8.21-3.93.2-8.19,1.52-11.66-.75-8.62-5.66-18.95-4.55-28.19-7.66-2-.69-5-.92-5.95,3.54.7,2.09,3.06,2.46,5.48,2.91,25.33,4.68,50.65,9.41,76,14C362.55,513.19,363.31,511.84,365.74,509.27Z" transform="translate(-3.07 -2.6)"/><path class="cls-2" d="M598.44,182c12.3,12.75,22.24,25.51,19.53,44.12-.5,3.38,0,7,.39,10.41,2.35,22.78-6.08,42-18,60.87C580,329.86,563.86,364.69,546.89,399c-8.46,17.11-18.25,33.43-27.39,50.13Q503,479.18,486.66,509.25c-5.41,10-10.48,20.09-19.05,27.89-1.88,1.72-3.64,3.37-6.63,2.5-3-3.35-1-7.45-1.25-11.21-.89-15.84-4.28-30.93-12.86-44.48-3.25-5.15-3.57-10.13-.9-15.42,3.54-7,6.39-14.56,10.86-20.95,12.78-18.25,22.07-38.32,31.9-58.14,6.13-12.36,12.27-24.65,20.66-35.77,3.18-4.22,4.56-9.77,6.94-14.63,6.48-13.2,10.9-27.28,19.9-39.44,8.45-11.41,11.66-25.82,19.12-38.14,12.45-20.56,23.43-42,34.94-63.13C593.07,193.24,595.5,188,598.44,182Z" transform="translate(-3.07 -2.6)"/><path class="cls-3" d="M31.73,301.2c16.35-20.13,13.08-41.51,7.63-63.71,7.13-2.2,12.71,2.07,18.65,3.14,6.29,1.12,12.61,1.7,18.88,3.7,15.48,4.93,31.52,8.08,47,12.88,38.32,11.84,77.86,19.07,116,31.61,14,4.61,28.93,6.68,43.43,9.92C298,302,307.31,310.43,312.17,325.2c4.44,13.48,3.62,27.07,5.87,41.63-10.83,1.29-19.5-2.39-28.49-4-22.91-4-44.69-12.45-67.7-16.25-17-2.79-33.47-8.44-50.27-12.42-17.77-4.21-35.7-7.72-53.47-11.93C89.83,315.56,61.63,308.51,31.73,301.2Zm208.49,16.05c-3.5-9-9.31-10.39-14.69-10.25-8.52.22-16-2.63-23.05-6.37-10.43-5.56-21.44-5.51-32.56-5.19-3.14.1-3.52,2.74-1.47,6.07,6.22-1.27,12.51-3.37,19.38-.08C203.55,309,220.75,311.9,240.22,317.25ZM98.3,269.77a122.26,122.26,0,0,0-44.64-10.41c-2.36-.11-2.33,2.63-1.31,5.34C67.4,266.68,82.3,272.12,98.3,269.77ZM45.8,289a65.3,65.3,0,0,1,30.73,2.43c8.06,2.59,16.31,3.55,24.66,4.1,3.1.2,6-.31,5.82-4.55C55.25,281.51,55.25,281.51,45.8,289Z" transform="translate(-3.07 -2.6)"/><path class="cls-2" d="M30.6,508.83c27.67-17.72,53-32.4,78.94-45.93,1.48-.77,3.72-.1,6.25-.1.83,9.34,1.76,17.22-4.42,25.63-4.59,6.26-9.13,13.9-9.88,21.81a6.35,6.35,0,0,0,5.4,3.45c15,2,29.64,6.31,44.35,9.53,18.68,4.1,38.32,2.29,56.33,9.93,3.41,1.45,7.83.58,11.78.71,12.28.43,24.88-1.26,36.26,5.33a2.51,2.51,0,0,0,1.39.44c20.73-1.51,40.42,6.44,61,6.63,3,0,6.43-.72,8.86.49,18.8,9.33,40,3.19,59.49,9.8,10,3.41,21.89,1.51,33.12,2-2.56,8.11-8.19,12.59-13.73,17.32-7,6-14.9,10.77-22,16.72-8.55,7.14-18.82,8.64-30.47,4.67-18-6.13-36.84-9.6-54.87-15.58-17.43-5.78-36.46-6-52.68-16.3-5.49-3.49-13.29-1.94-20-4.38-10.89-4-22.77-5.24-33.59-9.35-9.39-3.56-19.81-3.9-28.49-9.48a8,8,0,0,0-4.06-1.42c-16,0-30.14-7.43-45.15-11-11.79-2.79-23.3-7.32-35.81-8.34-9.36-.76-18.64-4.87-28-7.28C45,512.75,39.5,510.5,30.6,508.83Z" transform="translate(-3.07 -2.6)"/><path class="cls-2" d="M606,318.75c25.5,4.42,50.64,12.08,79.71,13.83-14.25,10.55-23,22.41-33.81,32.08a335.08,335.08,0,0,1-30.72,24.68c-10.24,7.15-18.93,15.76-27.44,24.68-12.53,13.12-25.29,26.17-40.23,36.41-12.43,8.53-23.69,18-33.42,29.4-.7.82-2.81.44-6.44.89,13.69-28.33,33.57-51.57,45.62-79.37C571.53,373.09,592.36,349.34,606,318.75Z" transform="translate(-3.07 -2.6)"/><path class="cls-1" d="M310.45,617.73c-8.41,5.13-14.51,1.95-20.35-.31-23.26-9-47.54-12.53-72.23-14.56-9.28-.76-18.45-3-27.62-4.86a4,4,0,0,1-3.49-4.12,4.76,4.76,0,0,1,.43-1.32,2.36,2.36,0,0,1,1.09-1,5.8,5.8,0,0,1,2.87-.46c30.45,8.36,63,5.8,92.77,17.68C292,612,300.47,614.4,310.45,617.73Z" transform="translate(-3.07 -2.6)"/><path class="cls-1" d="M174.34,637.36a808.78,808.78,0,0,1,102.81,25.26c-12.53,2-24.21-1.64-35.84-4.38-15.87-3.73-31.72-7.52-47.78-10.31C187.07,646.81,181.22,645.18,174.34,637.36Z" transform="translate(-3.07 -2.6)"/><path class="cls-1" d="M365.74,509.27c-2.43,2.57-3.19,3.92-3.69,3.83-25.35-4.59-50.67-9.32-76-14-2.42-.45-4.78-.82-5.48-2.91.93-4.46,3.9-4.23,5.95-3.54,9.24,3.11,19.57,2,28.19,7.66,3.47,2.27,7.73.95,11.66.75C339.72,500.36,352,504.24,365.74,509.27Z" transform="translate(-3.07 -2.6)"/><path class="cls-1" d="M240.22,317.25c-19.47-5.35-36.67-8.3-52.39-15.82-6.87-3.29-13.16-1.19-19.38.08-2-3.33-1.67-6,1.47-6.07,11.12-.32,22.13-.37,32.56,5.19,7,3.74,14.53,6.59,23.05,6.37C230.91,306.86,236.72,308.25,240.22,317.25Z" transform="translate(-3.07 -2.6)"/><path class="cls-1" d="M98.3,269.77c-16,2.35-30.9-3.09-45.95-5.07-1-2.71-1.05-5.45,1.31-5.34A122.26,122.26,0,0,1,98.3,269.77Z" transform="translate(-3.07 -2.6)"/><path class="cls-1" d="M45.8,289c9.45-7.45,9.45-7.45,61.21,2,.2,4.25-2.72,4.76-5.82,4.56-8.35-.55-16.6-1.51-24.66-4.1A65.3,65.3,0,0,0,45.8,289Z" transform="translate(-3.07 -2.6)"/></svg>